<?xml version="1.0" encoding="UTF-8" standalone="no"?>
<!-- Created with Inkscape (http://www.inkscape.org/) -->

<svg
   xmlns:dc="http://purl.org/dc/elements/1.1/"
   xmlns:cc="http://creativecommons.org/ns#"
   xmlns:rdf="http://www.w3.org/1999/02/22-rdf-syntax-ns#"
   xmlns:svg="http://www.w3.org/2000/svg"
   xmlns="http://www.w3.org/2000/svg"
   xmlns:sodipodi="http://sodipodi.sourceforge.net/DTD/sodipodi-0.dtd"
   xmlns:inkscape="http://www.inkscape.org/namespaces/inkscape"
   width="1192.8203"
   height="363.89716"
   id="svg45975"
   version="1.1"
   inkscape:version="0.48.5 r10040"
   sodipodi:docname="Mismatch.svg"
   inkscape:export-filename="/home/mhasoba/Documents/Grants/2014_ERC_StartingGrant/Proposal/Figures/Mismatch.png"
   inkscape:export-xdpi="150"
   inkscape:export-ydpi="150">
  <defs
     id="defs45977">
    <inkscape:path-effect
       is_visible="true"
       id="path-effect4026"
       effect="spiro" />
    <inkscape:path-effect
       effect="spiro"
       id="path-effect4028"
       is_visible="true" />
    <marker
       inkscape:stockid="Arrow1Mstart"
       orient="auto"
       refY="0"
       refX="0"
       id="Arrow1Mstart"
       style="overflow:visible">
      <path
         id="path3809"
         d="M 0,0 5,-5 -12.5,0 5,5 0,0 z"
         style="fill-rule:evenodd;stroke:#000000;stroke-width:1pt;marker-start:none"
         transform="matrix(0.4,0,0,0.4,4,0)"
         inkscape:connector-curvature="0" />
    </marker>
    <marker
       inkscape:stockid="Arrow1Mstart"
       orient="auto"
       refY="0"
       refX="0"
       id="marker45999"
       style="overflow:visible">
      <path
         id="path46001"
         d="M 0,0 5,-5 -12.5,0 5,5 0,0 z"
         style="fill-rule:evenodd;stroke:#000000;stroke-width:1pt;marker-start:none"
         transform="matrix(0.4,0,0,0.4,4,0)"
         inkscape:connector-curvature="0" />
    </marker>
    <inkscape:path-effect
       is_visible="true"
       id="path-effect3899"
       effect="spiro" />
    <marker
       inkscape:stockid="Arrow1Mstart"
       orient="auto"
       refY="0"
       refX="0"
       id="marker46004"
       style="overflow:visible">
      <path
         id="path46006"
         d="M 0,0 5,-5 -12.5,0 5,5 0,0 z"
         style="fill-rule:evenodd;stroke:#000000;stroke-width:1pt;marker-start:none"
         transform="matrix(0.4,0,0,0.4,4,0)"
         inkscape:connector-curvature="0" />
    </marker>
    <inkscape:path-effect
       effect="spiro"
       id="path-effect3079"
       is_visible="true" />
    <inkscape:path-effect
       effect="spiro"
       id="path-effect5402"
       is_visible="true" />
    <inkscape:path-effect
       effect="spiro"
       id="path-effect5353"
       is_visible="true" />
    <marker
       inkscape:stockid="Arrow1Mstart"
       orient="auto"
       refY="0"
       refX="0"
       id="marker46011"
       style="overflow:visible">
      <path
         id="path46013"
         d="M 0,0 5,-5 -12.5,0 5,5 0,0 z"
         style="fill-rule:evenodd;stroke:#000000;stroke-width:1pt;marker-start:none"
         transform="matrix(0.4,0,0,0.4,4,0)"
         inkscape:connector-curvature="0" />
    </marker>
    <marker
       inkscape:stockid="Arrow1Mstart"
       orient="auto"
       refY="0"
       refX="0"
       id="marker46015"
       style="overflow:visible">
      <path
         id="path46017"
         d="M 0,0 5,-5 -12.5,0 5,5 0,0 z"
         style="fill-rule:evenodd;stroke:#000000;stroke-width:1pt;marker-start:none"
         transform="matrix(0.4,0,0,0.4,4,0)"
         inkscape:connector-curvature="0" />
    </marker>
    <clipPath
       clipPathUnits="userSpaceOnUse"
       id="clipPath7194-4">
      <path
         inkscape:connector-curvature="0"
         d="m 0,2011.13 4830,0 0,-2000.0011 -4830,0 0,2000.0011 z"
         id="path7196-1" />
    </clipPath>
    <clipPath
       clipPathUnits="userSpaceOnUse"
       id="clipPath7194-4-3">
      <path
         inkscape:connector-curvature="0"
         d="m 0,2011.13 4830,0 0,-2000.0011 -4830,0 0,2000.0011 z"
         id="path7196-1-0" />
    </clipPath>
    <marker
       inkscape:stockid="Arrow1Mstart"
       orient="auto"
       refY="0"
       refX="0"
       id="marker46023"
       style="overflow:visible">
      <path
         id="path46025"
         d="M 0,0 5,-5 -12.5,0 5,5 0,0 z"
         style="fill-rule:evenodd;stroke:#000000;stroke-width:1pt;marker-start:none"
         transform="matrix(0.4,0,0,0.4,4,0)"
         inkscape:connector-curvature="0" />
    </marker>
    <clipPath
       clipPathUnits="userSpaceOnUse"
       id="clipPath7194-4-4">
      <path
         inkscape:connector-curvature="0"
         d="m 0,2011.13 4830,0 0,-2000.0011 -4830,0 0,2000.0011 z"
         id="path7196-1-01" />
    </clipPath>
    <clipPath
       clipPathUnits="userSpaceOnUse"
       id="clipPath7194-4-3-3">
      <path
         inkscape:connector-curvature="0"
         d="m 0,2011.13 4830,0 0,-2000.0011 -4830,0 0,2000.0011 z"
         id="path7196-1-0-8" />
    </clipPath>
    <inkscape:path-effect
       is_visible="true"
       id="path-effect4026-4"
       effect="spiro" />
    <inkscape:path-effect
       effect="spiro"
       id="path-effect3079-9"
       is_visible="true" />
    <marker
       style="overflow:visible"
       id="Arrow1Mend"
       refX="0"
       refY="0"
       orient="auto"
       inkscape:stockid="Arrow1Mend">
      <path
         inkscape:connector-curvature="0"
         transform="matrix(-0.4,0,0,-0.4,-4,0)"
         style="fill-rule:evenodd;stroke:#000000;stroke-width:1pt;marker-start:none"
         d="M 0,0 5,-5 -12.5,0 5,5 0,0 z"
         id="path11587" />
    </marker>
    <clipPath
       clipPathUnits="userSpaceOnUse"
       id="clipPath1020">
      <path
         d="M -3.262e-6,540 720,540 720,1.8311e-4 -7.697e-6,1.2207e-4"
         clip-rule="evenodd"
         id="path1022"
         inkscape:connector-curvature="0" />
    </clipPath>
    <clipPath
       clipPathUnits="userSpaceOnUse"
       id="clipPath1030">
      <path
         d="m 0,0 250.56,0 0,298.72 L 0,298.72 0,0 z"
         id="path1032"
         inkscape:connector-curvature="0" />
    </clipPath>
    <clipPath
       clipPathUnits="userSpaceOnUse"
       id="clipPath1160">
      <path
         d="M -3.855e-6,540 720,540 720,0 -5.082e-6,0"
         clip-rule="evenodd"
         id="path1162"
         inkscape:connector-curvature="0" />
    </clipPath>
    <clipPath
       clipPathUnits="userSpaceOnUse"
       id="clipPath1170">
      <path
         d="m 0,0 164.95,0 0,126.56 L 0,126.56 0,0 z"
         id="path1172"
         inkscape:connector-curvature="0" />
    </clipPath>
    <clipPath
       clipPathUnits="userSpaceOnUse"
       id="clipPath3730">
      <path
         d="M -1.26e-6,2.4414e-4 720,2.4414e-4 720,540.00024 -1.26e-6,540.00024 l 0,-539.99999586 z"
         clip-rule="evenodd"
         id="path3732"
         inkscape:connector-curvature="0" />
    </clipPath>
    <clipPath
       clipPathUnits="userSpaceOnUse"
       id="clipPath3740">
      <path
         d="m 0,0 141.63,0 0,144.65 L 0,144.65 0,0 z"
         id="path3742"
         inkscape:connector-curvature="0" />
    </clipPath>
    <clipPath
       clipPathUnits="userSpaceOnUse"
       id="clipPath3848">
      <path
         d="M -1.607e-6,540 720,540 720,1.8311e-4 -4.877e-6,1.2207e-4"
         clip-rule="evenodd"
         id="path3850"
         inkscape:connector-curvature="0" />
    </clipPath>
    <clipPath
       clipPathUnits="userSpaceOnUse"
       id="clipPath3858">
      <path
         d="m 0,0 164.95,0 0,126.56 L 0,126.56 0,0 z"
         id="path3860"
         inkscape:connector-curvature="0" />
    </clipPath>
    <clipPath
       clipPathUnits="userSpaceOnUse"
       id="clipPath6154">
      <path
         d="M 8.29e-7,540 720,540 720,0 9.14e-7,0"
         clip-rule="evenodd"
         id="path6156"
         inkscape:connector-curvature="0" />
    </clipPath>
    <clipPath
       clipPathUnits="userSpaceOnUse"
       id="clipPath6164">
      <path
         d="m 0,0 164.95,0 0,126.56 L 0,126.56 0,0 z"
         id="path6166"
         inkscape:connector-curvature="0" />
    </clipPath>
    <clipPath
       clipPathUnits="userSpaceOnUse"
       id="clipPath6708">
      <path
         d="M -4.187e-6,540 720,540 720,1.2207e-4 l -720.000003383,0"
         clip-rule="evenodd"
         id="path6710"
         inkscape:connector-curvature="0" />
    </clipPath>
    <clipPath
       clipPathUnits="userSpaceOnUse"
       id="clipPath6718">
      <path
         d="m 0,0 164.95,0 0,126.56 L 0,126.56 0,0 z"
         id="path6720"
         inkscape:connector-curvature="0" />
    </clipPath>
    <clipPath
       clipPathUnits="userSpaceOnUse"
       id="clipPath4698">
      <path
         d="M -3.599e-6,540 720,540 720,6.104e-6 -2.62e-7,6.104e-6"
         clip-rule="evenodd"
         id="path4700"
         inkscape:connector-curvature="0" />
    </clipPath>
    <clipPath
       clipPathUnits="userSpaceOnUse"
       id="clipPath4708">
      <path
         d="m 0,0 250.56,0 0,298.72 L 0,298.72 0,0 z"
         id="path4710"
         inkscape:connector-curvature="0" />
    </clipPath>
    <clipPath
       clipPathUnits="userSpaceOnUse"
       id="clipPath5392">
      <path
         d="M 1.98e-7,1.8311e-4 720,1.8311e-4 720,540.00018 1.98e-7,540.00018 l 0,-539.99999689 z"
         clip-rule="evenodd"
         id="path5394"
         inkscape:connector-curvature="0" />
    </clipPath>
    <clipPath
       clipPathUnits="userSpaceOnUse"
       id="clipPath5402">
      <path
         d="m 0,0 164.95,0 0,126.56 L 0,126.56 0,0 z"
         id="path5404"
         inkscape:connector-curvature="0" />
    </clipPath>
    <clipPath
       clipPathUnits="userSpaceOnUse"
       id="clipPath6036">
      <path
         d="M 3.234e-6,1.8311e-4 720,1.8311e-4 720,540.00018 3.234e-6,540.00018 l 0,-539.99999689 z"
         clip-rule="evenodd"
         id="path6038"
         inkscape:connector-curvature="0" />
    </clipPath>
    <clipPath
       clipPathUnits="userSpaceOnUse"
       id="clipPath6046">
      <path
         d="m 0,0 141.63,0 0,144.65 L 0,144.65 0,0 z"
         id="path6048"
         inkscape:connector-curvature="0" />
    </clipPath>
    <clipPath
       clipPathUnits="userSpaceOnUse"
       id="clipPath880-7">
      <path
         inkscape:connector-curvature="0"
         d="M 5.26e-7,540 720,540 720,1.8311e-4 -1.13e-6,1.2207e-4"
         clip-rule="evenodd"
         id="path882-8" />
    </clipPath>
    <clipPath
       clipPathUnits="userSpaceOnUse"
       id="clipPath890-2">
      <path
         inkscape:connector-curvature="0"
         d="m 0,0 250.56,0 0,298.72 L 0,298.72 0,0 z"
         id="path892-9" />
    </clipPath>
    <clipPath
       clipPathUnits="userSpaceOnUse"
       id="clipPath4838">
      <path
         d="M -2.76e-6,540 720,540 720,0 -4.709e-6,0"
         clip-rule="evenodd"
         id="path4840"
         inkscape:connector-curvature="0" />
    </clipPath>
    <clipPath
       clipPathUnits="userSpaceOnUse"
       id="clipPath4848">
      <path
         d="m 0,0 164.95,0 0,126.56 L 0,126.56 0,0 z"
         id="path4850"
         inkscape:connector-curvature="0" />
    </clipPath>
    <clipPath
       clipPathUnits="userSpaceOnUse"
       id="clipPath46-6">
      <path
         d="M 1.202e-6,1.8311e-4 720,1.8311e-4 720,540.00018 1.202e-6,540.00018 l 0,-539.99999689 z"
         clip-rule="evenodd"
         id="path48-7"
         inkscape:connector-curvature="0" />
    </clipPath>
    <clipPath
       clipPathUnits="userSpaceOnUse"
       id="clipPath56-2">
      <path
         d="m 0,0 164.95,0 0,126.56 L 0,126.56 0,0 z"
         id="path58-0"
         inkscape:connector-curvature="0" />
    </clipPath>
    <clipPath
       clipPathUnits="userSpaceOnUse"
       id="clipPath600-2">
      <path
         d="M 4.34e-7,540 720,540 720,1.2207e-4 -2.75e-7,1.2207e-4"
         clip-rule="evenodd"
         id="path602-0"
         inkscape:connector-curvature="0" />
    </clipPath>
    <clipPath
       clipPathUnits="userSpaceOnUse"
       id="clipPath610-3">
      <path
         d="m 0,0 250.56,0 0,298.72 L 0,298.72 0,0 z"
         id="path612-7"
         inkscape:connector-curvature="0" />
    </clipPath>
    <clipPath
       clipPathUnits="userSpaceOnUse"
       id="clipPath3376-2">
      <path
         d="M -2.26e-7,2.4414e-4 720,2.4414e-4 720,540.00024 -2.26e-7,540.00024 l 0,-539.99999586 z"
         clip-rule="evenodd"
         id="path3378-7"
         inkscape:connector-curvature="0" />
    </clipPath>
    <clipPath
       clipPathUnits="userSpaceOnUse"
       id="clipPath3386-5">
      <path
         d="m 0,0 141.63,0 0,144.65 L 0,144.65 0,0 z"
         id="path3388-0"
         inkscape:connector-curvature="0" />
    </clipPath>
    <clipPath
       clipPathUnits="userSpaceOnUse"
       id="clipPath600-2-9">
      <path
         d="M 4.34e-7,540 720,540 720,1.2207e-4 -2.75e-7,1.2207e-4"
         clip-rule="evenodd"
         id="path602-0-2"
         inkscape:connector-curvature="0" />
    </clipPath>
    <clipPath
       clipPathUnits="userSpaceOnUse"
       id="clipPath610-3-5">
      <path
         d="m 0,0 250.56,0 0,298.72 L 0,298.72 0,0 z"
         id="path612-7-4"
         inkscape:connector-curvature="0" />
    </clipPath>
    <clipPath
       clipPathUnits="userSpaceOnUse"
       id="clipPath600-2-5">
      <path
         d="M 4.34e-7,540 720,540 720,1.2207e-4 -2.75e-7,1.2207e-4"
         clip-rule="evenodd"
         id="path602-0-7"
         inkscape:connector-curvature="0" />
    </clipPath>
    <clipPath
       clipPathUnits="userSpaceOnUse"
       id="clipPath610-3-7">
      <path
         d="m 0,0 250.56,0 0,298.72 L 0,298.72 0,0 z"
         id="path612-7-0"
         inkscape:connector-curvature="0" />
    </clipPath>
    <clipPath
       clipPathUnits="userSpaceOnUse"
       id="clipPath600-2-6">
      <path
         d="M 4.34e-7,540 720,540 720,1.2207e-4 -2.75e-7,1.2207e-4"
         clip-rule="evenodd"
         id="path602-0-1"
         inkscape:connector-curvature="0" />
    </clipPath>
    <clipPath
       clipPathUnits="userSpaceOnUse"
       id="clipPath610-3-6">
      <path
         d="m 0,0 250.56,0 0,298.72 L 0,298.72 0,0 z"
         id="path612-7-1"
         inkscape:connector-curvature="0" />
    </clipPath>
    <clipPath
       clipPathUnits="userSpaceOnUse"
       id="clipPath46-6-3">
      <path
         d="M 1.202e-6,1.8311e-4 720,1.8311e-4 720,540.00018 1.202e-6,540.00018 l 0,-539.99999689 z"
         clip-rule="evenodd"
         id="path48-7-4"
         inkscape:connector-curvature="0" />
    </clipPath>
    <clipPath
       clipPathUnits="userSpaceOnUse"
       id="clipPath56-2-6">
      <path
         d="m 0,0 164.95,0 0,126.56 L 0,126.56 0,0 z"
         id="path58-0-30"
         inkscape:connector-curvature="0" />
    </clipPath>
    <clipPath
       clipPathUnits="userSpaceOnUse"
       id="clipPath46-6-2">
      <path
         d="M 1.202e-6,1.8311e-4 720,1.8311e-4 720,540.00018 1.202e-6,540.00018 l 0,-539.99999689 z"
         clip-rule="evenodd"
         id="path48-7-1"
         inkscape:connector-curvature="0" />
    </clipPath>
    <clipPath
       clipPathUnits="userSpaceOnUse"
       id="clipPath56-2-0">
      <path
         d="m 0,0 164.95,0 0,126.56 L 0,126.56 0,0 z"
         id="path58-0-4"
         inkscape:connector-curvature="0" />
    </clipPath>
    <clipPath
       clipPathUnits="userSpaceOnUse"
       id="clipPath46-6-23">
      <path
         d="M 1.202e-6,1.8311e-4 720,1.8311e-4 720,540.00018 1.202e-6,540.00018 l 0,-539.99999689 z"
         clip-rule="evenodd"
         id="path48-7-7"
         inkscape:connector-curvature="0" />
    </clipPath>
    <clipPath
       clipPathUnits="userSpaceOnUse"
       id="clipPath56-2-65">
      <path
         d="m 0,0 164.95,0 0,126.56 L 0,126.56 0,0 z"
         id="path58-0-2"
         inkscape:connector-curvature="0" />
    </clipPath>
    <clipPath
       clipPathUnits="userSpaceOnUse"
       id="clipPath3376-2-5">
      <path
         d="M -2.26e-7,2.4414e-4 720,2.4414e-4 720,540.00024 -2.26e-7,540.00024 l 0,-539.99999586 z"
         clip-rule="evenodd"
         id="path3378-7-9"
         inkscape:connector-curvature="0" />
    </clipPath>
    <clipPath
       clipPathUnits="userSpaceOnUse"
       id="clipPath3386-5-8">
      <path
         d="m 0,0 141.63,0 0,144.65 L 0,144.65 0,0 z"
         id="path3388-0-37"
         inkscape:connector-curvature="0" />
    </clipPath>
    <clipPath
       clipPathUnits="userSpaceOnUse"
       id="clipPath3376-2-7">
      <path
         d="M -2.26e-7,2.4414e-4 720,2.4414e-4 720,540.00024 -2.26e-7,540.00024 l 0,-539.99999586 z"
         clip-rule="evenodd"
         id="path3378-7-5"
         inkscape:connector-curvature="0" />
    </clipPath>
    <clipPath
       clipPathUnits="userSpaceOnUse"
       id="clipPath3386-5-4">
      <path
         d="m 0,0 141.63,0 0,144.65 L 0,144.65 0,0 z"
         id="path3388-0-5"
         inkscape:connector-curvature="0" />
    </clipPath>
    <clipPath
       clipPathUnits="userSpaceOnUse"
       id="clipPath3376-2-1">
      <path
         d="M -2.26e-7,2.4414e-4 720,2.4414e-4 720,540.00024 -2.26e-7,540.00024 l 0,-539.99999586 z"
         clip-rule="evenodd"
         id="path3378-7-7"
         inkscape:connector-curvature="0" />
    </clipPath>
    <clipPath
       clipPathUnits="userSpaceOnUse"
       id="clipPath3386-5-7">
      <path
         d="m 0,0 141.63,0 0,144.65 L 0,144.65 0,0 z"
         id="path3388-0-34"
         inkscape:connector-curvature="0" />
    </clipPath>
    <clipPath
       clipPathUnits="userSpaceOnUse"
       id="clipPath3376-2-57">
      <path
         d="M -2.26e-7,2.4414e-4 720,2.4414e-4 720,540.00024 -2.26e-7,540.00024 l 0,-539.99999586 z"
         clip-rule="evenodd"
         id="path3378-7-0"
         inkscape:connector-curvature="0" />
    </clipPath>
    <clipPath
       clipPathUnits="userSpaceOnUse"
       id="clipPath3386-5-1">
      <path
         d="m 0,0 141.63,0 0,144.65 L 0,144.65 0,0 z"
         id="path3388-0-1"
         inkscape:connector-curvature="0" />
    </clipPath>
    <clipPath
       clipPathUnits="userSpaceOnUse"
       id="clipPath600-2-5-1">
      <path
         d="M 4.34e-7,540 720,540 720,1.2207e-4 -2.75e-7,1.2207e-4"
         clip-rule="evenodd"
         id="path602-0-7-7"
         inkscape:connector-curvature="0" />
    </clipPath>
    <clipPath
       clipPathUnits="userSpaceOnUse"
       id="clipPath610-3-7-1">
      <path
         d="m 0,0 250.56,0 0,298.72 L 0,298.72 0,0 z"
         id="path612-7-0-2"
         inkscape:connector-curvature="0" />
    </clipPath>
    <inkscape:path-effect
       effect="spiro"
       id="path-effect3079-8"
       is_visible="true" />
    <inkscape:path-effect
       effect="spiro"
       id="path-effect5402-4"
       is_visible="true" />
    <inkscape:path-effect
       effect="spiro"
       id="path-effect5353-0"
       is_visible="true" />
    <inkscape:path-effect
       is_visible="true"
       id="path-effect4026-9"
       effect="spiro" />
    <inkscape:path-effect
       effect="spiro"
       id="path-effect4028-6"
       is_visible="true" />
    <marker
       style="overflow:visible"
       id="Arrow1Mend-2"
       refX="0"
       refY="0"
       orient="auto"
       inkscape:stockid="Arrow1Mend">
      <path
         inkscape:connector-curvature="0"
         transform="matrix(-0.4,0,0,-0.4,-4,0)"
         style="fill-rule:evenodd;stroke:#000000;stroke-width:1pt;marker-start:none"
         d="M 0,0 5,-5 -12.5,0 5,5 0,0 z"
         id="path11587-6" />
    </marker>
    <inkscape:path-effect
       effect="spiro"
       id="path-effect3079-8-3"
       is_visible="true" />
    <inkscape:path-effect
       effect="spiro"
       id="path-effect4028-6-7"
       is_visible="true" />
    <inkscape:path-effect
       is_visible="true"
       id="path-effect4026-9-0"
       effect="spiro" />
    <inkscape:path-effect
       is_visible="true"
       id="path-effect4026-9-6"
       effect="spiro" />
    <inkscape:path-effect
       effect="spiro"
       id="path-effect3079-8-7"
       is_visible="true" />
    <inkscape:path-effect
       effect="spiro"
       id="path-effect3079-8-9"
       is_visible="true" />
    <inkscape:path-effect
       effect="spiro"
       id="path-effect5402-4-9"
       is_visible="true" />
    <inkscape:path-effect
       effect="spiro"
       id="path-effect5353-0-5"
       is_visible="true" />
    <inkscape:path-effect
       is_visible="true"
       id="path-effect4026-9-4"
       effect="spiro" />
    <inkscape:path-effect
       effect="spiro"
       id="path-effect4028-6-5"
       is_visible="true" />
  </defs>
  <sodipodi:namedview
     id="base"
     pagecolor="#ffffff"
     bordercolor="#666666"
     borderopacity="1.0"
     inkscape:pageopacity="0.0"
     inkscape:pageshadow="2"
     inkscape:zoom="0.95816512"
     inkscape:cx="680.35323"
     inkscape:cy="198.78929"
     inkscape:document-units="px"
     inkscape:current-layer="layer1"
     showgrid="false"
     inkscape:window-width="1920"
     inkscape:window-height="1056"
     inkscape:window-x="0"
     inkscape:window-y="24"
     inkscape:window-maximized="1"
     fit-margin-top="0"
     fit-margin-left="0"
     fit-margin-right="0"
     fit-margin-bottom="0" />
  <metadata
     id="metadata45980">
    <rdf:RDF>
      <cc:Work
         rdf:about="">
        <dc:format>image/svg+xml</dc:format>
        <dc:type
           rdf:resource="http://purl.org/dc/dcmitype/StillImage" />
        <dc:title></dc:title>
      </cc:Work>
    </rdf:RDF>
  </metadata>
  <g
     inkscape:label="Layer 1"
     inkscape:groupmode="layer"
     id="layer1"
     transform="translate(129.96203,142.59694)">
    <flowRoot
       xml:space="preserve"
       id="flowRoot3071"
       style="font-size:40px;font-style:normal;font-weight:normal;line-height:125%;letter-spacing:0px;word-spacing:0px;fill:#000000;fill-opacity:1;stroke:none;font-family:Sans"
       transform="translate(183.49681,114.61839)"><flowRegion
         id="flowRegion3073"><rect
           id="rect3075"
           width="474.21005"
           height="537.67755"
           x="404.75504"
           y="32.933407" /></flowRegion><flowPara
         id="flowPara3077" /></flowRoot>    <text
       id="text22-9"
       x="1313.9111"
       y="207.31587"
       style="font-size:8.93854904px">
      <tspan
         style="font-size:11px;font-style:italic;font-variant:normal;font-weight:normal;font-stretch:normal;text-indent:0;text-align:start;text-decoration:none;line-height:100%;letter-spacing:normal;word-spacing:normal;text-transform:none;direction:ltr;block-progression:tb;writing-mode:lr-tb;text-anchor:start;baseline-shift:baseline;color:#000000;fill:#000000;fill-opacity:1;fill-rule:nonzero;stroke:none;stroke-width:1;marker:none;visibility:visible;display:inline;overflow:visible;enable-background:accumulate;font-family:Arial;-inkscape-font-specification:Arial Italic"
         sodipodi:role="line"
         x="1313.9111"
         y="207.31587"
         id="tspan13917" />
    </text>
    <flowRoot
       transform="matrix(1.25,0,0,-1.25,1054.8449,1031.0245)"
       xml:space="preserve"
       id="flowRoot7788"
       style="font-size:20px;font-style:normal;font-variant:normal;font-weight:normal;font-stretch:normal;text-align:start;line-height:100%;letter-spacing:0px;word-spacing:0px;writing-mode:lr-tb;text-anchor:start;fill:#000000;fill-opacity:1;stroke:none;font-family:Arial;-inkscape-font-specification:Arial"><flowRegion
         id="flowRegion7790"><rect
           id="rect7792"
           width="109.58088"
           height="157.96187"
           x="152.5862"
           y="200.19067" /></flowRegion><flowPara
         id="flowPara7794" /></flowRoot>    <text
       id="text22-5"
       x="1264.6985"
       y="115.33971"
       style="font-size:17.86669159px">
      <tspan
         style="font-size:14.88891029px;font-style:italic;font-variant:normal;font-weight:normal;font-stretch:normal;text-indent:0;text-align:center;text-decoration:none;line-height:100%;letter-spacing:normal;word-spacing:normal;text-transform:none;direction:ltr;block-progression:tb;writing-mode:lr-tb;text-anchor:middle;baseline-shift:baseline;color:#000000;fill:#000000;fill-opacity:1;fill-rule:nonzero;stroke:none;stroke-width:1;marker:none;visibility:visible;display:inline;overflow:visible;enable-background:accumulate;font-family:Arial;-inkscape-font-specification:Arial"
         sodipodi:role="line"
         x="1264.6985"
         y="115.33971"
         id="tspan5666" />
    </text>
    <text
       xml:space="preserve"
       style="font-size:20px;font-style:normal;font-variant:normal;font-weight:normal;font-stretch:normal;text-align:start;line-height:100%;letter-spacing:0px;word-spacing:0px;writing-mode:lr-tb;text-anchor:start;fill:#000000;fill-opacity:1;stroke:none;font-family:Arial;-inkscape-font-specification:Arial"
       x="1520.0469"
       y="221.78001"
       id="text14627"
       sodipodi:linespacing="100%"><tspan
         sodipodi:role="line"
         id="tspan14629"
         x="1520.0469"
         y="221.78001" /></text>
    <flowRoot
       transform="matrix(1.25,0,0,-1.25,1054.8449,1031.0245)"
       xml:space="preserve"
       id="flowRoot8703"
       style="font-size:20px;font-style:normal;font-variant:normal;font-weight:normal;font-stretch:normal;text-align:start;line-height:100%;letter-spacing:0px;word-spacing:0px;writing-mode:lr-tb;text-anchor:start;fill:#000000;fill-opacity:1;stroke:none;font-family:Arial;-inkscape-font-specification:Arial"><flowRegion
         id="flowRegion8705"><rect
           id="rect8707"
           width="138.88889"
           height="30.701754"
           x="105.26316"
           y="80.64328" /></flowRegion><flowPara
         id="flowPara8709" /></flowRoot>    <flowRoot
       transform="matrix(1.25,0,0,-1.25,1054.8449,1031.0245)"
       xml:space="preserve"
       id="flowRoot8711"
       style="font-size:20px;font-style:normal;font-variant:normal;font-weight:normal;font-stretch:normal;text-align:start;line-height:100%;letter-spacing:0px;word-spacing:0px;writing-mode:lr-tb;text-anchor:start;fill:#000000;fill-opacity:1;stroke:none;font-family:Arial;-inkscape-font-specification:Arial"><flowRegion
         id="flowRegion8713"><rect
           id="rect8715"
           width="115.78947"
           height="51.16959"
           x="126.90058"
           y="66.023392" /></flowRegion><flowPara
         id="flowPara8717" /></flowRoot>    <text
       id="text22-9-4"
       x="1275.6812"
       y="889.21625"
       style="font-size:13.30852509px">
      <tspan
         style="font-size:14.88891029px;font-style:italic;font-variant:normal;font-weight:normal;font-stretch:normal;text-indent:0;text-align:center;text-decoration:none;line-height:100%;letter-spacing:normal;word-spacing:normal;text-transform:none;direction:ltr;block-progression:tb;writing-mode:lr-tb;text-anchor:middle;baseline-shift:baseline;color:#000000;fill:#000000;fill-opacity:1;fill-rule:nonzero;stroke:none;stroke-width:1;marker:none;visibility:visible;display:inline;overflow:visible;enable-background:accumulate;font-family:Arial;-inkscape-font-specification:Arial Italic"
         sodipodi:role="line"
         x="1275.6812"
         y="889.21625"
         id="tspan14651" />
    </text>
    <text
       xml:space="preserve"
       style="font-size:20px;font-style:normal;font-variant:normal;font-weight:normal;font-stretch:normal;text-align:start;line-height:100%;letter-spacing:0px;word-spacing:0px;writing-mode:lr-tb;text-anchor:start;fill:#000000;fill-opacity:1;stroke:none;font-family:Arial;-inkscape-font-specification:Arial"
       x="909.78027"
       y="293.40335"
       id="text7942"
       sodipodi:linespacing="100%"><tspan
         sodipodi:role="line"
         id="tspan7944"
         x="909.78027"
         y="293.40335" /></text>
    <text
       xml:space="preserve"
       style="font-size:20.13858414px;font-style:normal;font-weight:normal;line-height:125%;letter-spacing:0px;word-spacing:0px;fill:#000000;fill-opacity:1;stroke:none;font-family:Sans;-inkscape-font-specification:Sans"
       x="483.40598"
       y="214.705"
       id="text5077-2"
       sodipodi:linespacing="125%"
       transform="scale(1.0004358,0.99956439)"><tspan
         sodipodi:role="line"
         id="tspan5079-2"
         x="483.40598"
         y="214.705"
         style="font-size:32.24591064px;font-style:normal;font-variant:normal;font-weight:bold;font-stretch:normal;text-align:center;text-anchor:middle;font-family:Arial;-inkscape-font-specification:Arial">Environmental temperature</tspan></text>
    <flowRoot
       xml:space="preserve"
       id="flowRoot3071-4"
       style="font-size:40px;font-style:normal;font-weight:normal;line-height:125%;letter-spacing:0px;word-spacing:0px;fill:#000000;fill-opacity:1;stroke:none;font-family:Sans"
       transform="translate(929.64422,-272.22279)"><flowRegion
         id="flowRegion3073-6"><rect
           id="rect3075-2"
           width="474.21005"
           height="537.67755"
           x="404.75504"
           y="32.933407" /></flowRegion><flowPara
         id="flowPara3077-3" /></flowRoot>    <text
       xml:space="preserve"
       style="font-size:25.24830437px;font-style:normal;font-weight:normal;line-height:125%;letter-spacing:0px;word-spacing:0px;fill:#000000;fill-opacity:1;stroke:none;font-family:Sans;-inkscape-font-specification:Sans"
       x="-22.755991"
       y="-106.25968"
       id="text3114"
       sodipodi:linespacing="125%"
       transform="matrix(0.00293291,-0.99984533,1.0001461,0.002932,0,0)"><tspan
         sodipodi:role="line"
         x="-18.284395"
         y="-106.25968"
         style="font-size:32.24591064px;font-style:normal;font-variant:normal;font-weight:bold;font-stretch:normal;text-indent:0;text-align:center;text-decoration:none;line-height:125%;letter-spacing:0px;word-spacing:0px;text-transform:none;direction:ltr;block-progression:tb;writing-mode:lr-tb;text-anchor:middle;baseline-shift:baseline;color:#000000;fill:#000000;fill-opacity:1;fill-rule:nonzero;stroke:none;marker:none;visibility:visible;display:inline;overflow:visible;enable-background:accumulate;font-family:Arial;-inkscape-font-specification:Arial"
         id="tspan3109">Trait performance </tspan></text>
    <text
       xml:space="preserve"
       style="font-size:51.37639618px;font-style:normal;font-weight:normal;line-height:125%;letter-spacing:0px;word-spacing:0px;fill:#000000;fill-opacity:1;stroke:none;font-family:Sans"
       x="-87.227791"
       y="-110.97327"
       id="text3918-6"
       sodipodi:linespacing="125%"
       transform="scale(1.0004358,0.99956439)"><tspan
         sodipodi:role="line"
         x="-87.227791"
         y="-110.97327"
         id="tspan3920-3"
         style="font-size:34px;font-style:normal;font-variant:normal;font-weight:normal;font-stretch:normal;text-indent:0;text-align:start;text-decoration:none;line-height:125%;letter-spacing:0px;word-spacing:0px;text-transform:none;direction:ltr;block-progression:tb;writing-mode:lr-tb;text-anchor:start;baseline-shift:baseline;color:#000000;fill:#000000;fill-opacity:1;fill-rule:nonzero;stroke:none;marker:none;visibility:visible;display:inline;overflow:visible;enable-background:accumulate;font-family:Arial;-inkscape-font-specification:Arial">(a) Sensitivity mismatch</tspan></text>
    <path
       sodipodi:nodetypes="ssssssssssssscs"
       inkscape:connector-curvature="0"
       inkscape:original-d="m -88.900503,178.26842 c 20.806425,-3.13323 41.914813,-3.11172 62.419213,-9.39968 18.0240225,-5.52728 36.757078,-11.27928 52.523607,-25.84911 23.497945,-21.71427 48.765251,-45.128787 63.18049,-81.072197 13.194373,-32.898865 26.685093,-65.5190027 39.583083,-98.696578 6.49381,-16.703934 8.9661,-29.134208 18.26912,-42.29852 3.51396,-4.972655 8.19345,-11.079106 12.86669,-9.623918 3.34626,1.042015 9.91981,11.628962 11.69602,16.128577 5.22324,13.230902 3.38385,16.441757 6.64698,31.094011 6.13115,27.530531 12.36207,68.419737 18.37776,96.010974 6.63077,30.413258 8.11088,49.002211 19.13901,76.204511 5.99676,14.79203 14.36528,30.51417 24.14119,39.2772 8.83432,7.91893 19.57815,9.47548 29.68732,11.7496 6.53297,1.46964 19.79152,1.17495 19.79152,1.17495 l 0,1.17496"
       inkscape:path-effect="#path-effect3079-8"
       id="path5271-6"
       d="m -88.900503,178.26842 c 21.119564,3.7e-4 42.236384,-3.1796 62.419213,-9.39968 18.7362025,-5.77425 36.744321,-14.2129 52.523607,-25.84911 27.834861,-20.52642 47.691118,-50.14983 63.18049,-81.072197 15.885883,-31.713954 27.723233,-65.2678439 39.583083,-98.696578 5.14434,-14.500076 10.3524,-29.106026 18.26912,-42.29852 1.45371,-2.422482 3.02467,-4.825759 5.15152,-6.685389 1.06342,-0.929815 2.26161,-1.71533 3.57165,-2.243745 1.31004,-0.528415 2.73449,-0.79514 4.14352,-0.694784 1.78566,0.127181 3.50513,0.844097 4.94024,1.914242 1.43511,1.070144 2.59463,2.482912 3.49113,4.032445 1.793,3.099065 2.53363,6.676942 3.26465,10.18189 2.16401,10.375598 4.47021,20.721082 6.64698,31.094011 6.6923,31.8906917 12.15799,64.024766 18.37776,96.010974 5.00355,25.731586 10.51763,51.449271 19.13901,76.204511 2.56363,7.36115 5.41314,14.65769 9.25823,21.43811 3.84509,6.78041 8.72668,13.05799 14.88296,17.83909 8.49592,6.59811 19.06152,10.07387 29.68732,11.7496 6.53838,1.03113 13.17706,1.42525 19.79152,1.17495 l 0,1.17496"
       style="fill:none;stroke:#008000;stroke-width:5;stroke-linecap:butt;stroke-linejoin:miter;stroke-miterlimit:4;stroke-opacity:1;stroke-dasharray:none;stroke-dashoffset:0" />
    <path
       style="color:#000000;fill:none;stroke:#0000ff;stroke-width:5;stroke-linecap:butt;stroke-linejoin:miter;stroke-miterlimit:4;stroke-opacity:1;stroke-dasharray:none;stroke-dashoffset:0;marker:none;visibility:visible;display:inline;overflow:visible;enable-background:accumulate"
       d="m -88.872088,92.801865 c 0,0 73.854076,3.22531 104.394606,-5.624064 C 40.397537,79.970056 52.179787,78.19041 73.700823,59.057261 91.40841,43.314542 97.612407,32.907524 110.67397,9.24372 c 8.88055,-16.0891699 23.85522,-68.81388 33.1671,-84.361551 4.37229,-7.300269 8.62987,-13.949201 15.22421,-13.658578 6.68088,0.294371 8.8565,5.383938 12.50569,13.658578 6.51117,14.764612 7.90673,37.792367 11.41812,54.63413 4.97873,23.8796673 8.16756,48.798983 15.22425,71.506502 6.59002,21.206225 13.24159,43.896333 25.0112,59.454849 9.72738,12.85895 22.63804,20.48294 35.34202,24.90676 9.88035,3.44061 30.4484,0.80344 30.4484,0.80344 l 0,0 -0.54375,-1.6069"
       id="path3100-3"
       inkscape:connector-curvature="0"
       sodipodi:nodetypes="sssssssssssccs" />
    <path
       id="path8234-7"
       style="fill:#0000ff;fill-opacity:1;fill-rule:nonzero;stroke:none"
       d="m 174.24972,88.086673 c 0,0 -2.80797,-1.591363 -3.63701,-1.053882 -0.82671,0.542234 -2.82191,2.902176 -3.25473,4.952162 -0.43226,2.051394 -1.39991,5.270373 -2.06123,6.061031 -0.6646,0.784004 -2.54055,1.887434 -2.78735,2.051706 -0.24821,0.16181 -0.94916,-3.981324 -1.66425,-6.344888 -0.71722,-2.357717 -2.46347,-5.932024 -3.28672,-5.75022 -0.82129,0.182392 -4.71451,3.073776 -5.62554,4.023196 -0.91934,0.945787 -1.12416,2.262808 -3.9475,2.449111 -2.82752,0.187314 -9.38253,1.166622 -12.79228,2.452493 -3.41574,1.273911 -9.58352,4.118268 -11.27222,6.041498 -1.69069,1.92924 -4.35571,7.78947 -4.64141,9.51046 -0.29313,1.71957 -1.37456,5.84886 -1.88537,7.59695 -0.51202,1.74216 -1.79524,4.46797 -2.21576,5.09569 -0.41379,0.62461 -1.00526,2.07201 -0.49197,2.68097 l 0.51441,0.61024 c 0,0 -0.17012,0.81259 0.78201,1.36955 0.95227,0.55635 3.83046,0.44609 6.67496,0.83321 2.84236,0.38307 5.06264,1.06686 8.49628,0.36016 3.42987,-0.7048 4.65768,-0.44977 7.54708,-1.26283 2.88342,-0.82496 3.42733,-0.35237 6.42434,-1.36552 2.99925,-1.00921 3.74524,-1.85228 4.48441,-1.98055 0.74454,-0.13062 2.88682,-0.8184 2.88682,-0.8184 0,0 -0.15586,-0.96343 1.03445,-1.85656 1.18366,-0.8887 1.16631,-1.46436 1.16631,-1.46436 0,0 5.00363,-2.08476 6.43558,-2.06838 1.41764,0.006 7.16586,-1.84719 9.78818,-4.14699 2.63082,-2.30504 4.0376,-5.57063 1.50774,-7.81562 -2.53076,-2.24628 -4.4979,-2.37357 -4.4979,-2.37357 0,0 0.4194,-0.62673 1.543,-0.89003 1.12326,-0.26339 1.87038,-0.38859 5.20921,-0.33205 3.3428,0.0675 5.6427,0.33534 6.91888,-0.9707 1.27358,-1.29819 1.7614,-0.9135 1.03062,-1.49361 -0.73878,-0.58302 -1.70299,-0.0705 -3.43948,-1.65041 -1.74277,-1.575525 -3.59918,-4.610474 -3.68693,-6.91306 -0.0834,-2.293249 -0.47911,-4.518072 -0.74548,-4.933477 -0.2702,-0.406994 -0.51133,-0.603536 -0.51133,-0.603536"
       inkscape:connector-curvature="0" />
    <path
       sodipodi:nodetypes="csssssssssssssssssccccccccssssscsscssssssssssssscssssscsssssssssssscccccccccccssssssssscsscssscssssssssccsscscsssssssscsscscscscsscssssssssscsssccc"
       inkscape:connector-curvature="0"
       id="path8915-79-0-0"
       d="m 94.559386,138.92345 c 0.02714,-0.0385 -0.0014,-0.16497 0.02714,-0.21637 0.02714,-0.052 0.1208,-0.0729 0.14705,-0.13054 0.02715,-0.057 -0.02263,-0.14935 0,-0.20528 0.02263,-0.0561 0.0362,-0.10996 0.05204,-0.15724 0.118537,-0.41061 -0.158822,-0.83399 -0.889716,-1.36051 -0.254734,-0.18364 -0.432551,-0.38164 -0.395903,-0.44014 0.0362,-0.059 0.770403,-0.2008 1.629534,-0.31614 0.859348,-0.11565 2.074335,-0.35227 2.700592,-0.52597 1.62337,-0.45092 1.842733,-0.45308 2.284677,-0.0213 0.0761,0.0733 0.14706,0.13915 0.21583,0.19683 0.071,0.0583 0.13755,0.10747 0.20633,0.15144 0.0688,0.044 0.1393,0.0794 0.21083,0.10922 0.0733,0.0298 0.15204,0.0526 0.23257,0.0691 0.0832,0.0158 0.17057,0.0308 0.26787,0.0399 0.0968,0.0146 0.26604,0.15021 0.38186,0.14758 0.11623,-0.007 0.17782,-0.14898 0.31628,-0.16744 0.13755,-0.019 0.48602,0.44895 0.53209,0.23379 l 0.0761,-0.35246 0.26062,0.24541 0.0407,-0.31496 0.25022,0.18317 0.0543,-0.25276 0.28957,0.18293 0.0226,-0.25246 0.24432,0.0393 0.0272,-0.35565 c 0.0226,-0.13638 0.19682,-0.15637 0.19908,-0.30724 0,-0.15091 -0.13521,-0.41685 -0.17554,-0.57277 -0.0362,-0.15619 -0.0996,-0.30726 -0.17555,-0.44102 -0.0761,-0.13375 -0.16606,-0.24976 -0.26921,-0.33469 -0.25022,-0.20578 -0.2561,-0.23446 -0.0615,-0.31739 0.29137,-0.12383 1.09725,-0.0879 1.76943,0.0797 0.48047,0.12032 0.59924,0.21849 0.88452,0.73202 0.18278,0.32636 0.39408,0.64638 0.47237,0.71114 0.0783,0.0651 0.39816,0.38559 0.71017,0.71305 0.32758,0.34353 0.70213,0.61343 0.88586,0.63808 0.26425,0.0362 0.48612,0.0158 0.67606,-0.0654 0.18959,-0.0856 0.34795,-0.24065 0.48401,-0.48324 0.13477,-0.24304 0.25065,-0.57327 0.35336,-1.00963 0.10222,-0.43617 -0.16605,-1.08328 -0.0759,-1.74925 0.071,-0.52689 0.24072,-1.03257 0.30813,-1.49355 0.0688,-0.46083 0.39047,-0.77197 0.42214,-0.94415 0.11857,-0.64442 0.0597,-1.09096 -0.26831,-2.07224 -0.25156,-0.7536 -0.41806,-0.97784 -0.83821,-1.12802 -0.52332,-0.18714 -0.79227,-0.0146 -1.7507,1.10667 -1.22785,1.43949 -1.28404,1.48231 -1.80003,1.37796 -0.23482,-0.0476 -0.86714,-0.0977 -1.40497,-0.11229 -0.90107,-0.019 -1.91096,-0.23629 -1.91689,-0.40339 0.001,-0.038 0.16606,-0.19609 0.37102,-0.34974 0.45436,-0.34026 0.86007,-1.08219 0.84487,-1.54304 0,-0.0856 -0.0272,-0.17516 -0.071,-0.2617 -0.0407,-0.0867 0.0226,-0.28414 -0.0475,-0.35589 -0.0688,-0.0718 -0.26469,-0.0213 -0.34206,-0.0577 -0.0783,-0.0402 -0.0783,-0.18125 -0.14932,-0.17516 -0.0226,-0.001 -0.13478,0.11739 -0.18279,0.10922 -0.0453,-0.0146 0.0226,-0.20764 -0.052,-0.22388 -0.0643,-0.0158 -0.25203,0.15233 -0.32712,0.13054 -0.0761,-0.0213 -0.0783,-0.19211 -0.15883,-0.21777 -0.0571,-0.0213 -0.18506,0.10922 -0.23935,0.0948 -0.0543,-0.0146 0,-0.18247 -0.0571,-0.19257 -0.052,-0.0146 -0.20405,0.13507 -0.25609,0.12893 -0.052,-0.001 0.0226,-0.24015 -0.0362,-0.24274 -0.0565,-0.001 -0.24524,0.22672 -0.30858,0.22836 -0.0615,-0.001 -0.0615,-0.36297 -0.13259,-0.3575 -0.0733,0.007 -0.22079,0.38102 -0.30449,0.39008 -0.0856,0.007 -0.0951,-0.53739 -0.15203,-0.42768 l -0.24568,0.47626 -0.0923,-0.42274 -0.15202,0.45409 -0.0638,-0.3854 -0.177816,0.41679 -0.09009,-0.33029 -0.152019,0.36161 -0.08323,-0.12733 -0.196833,0.31618 -0.158809,0.0716 -0.152034,0.2746 -0.156546,0.17323 c -0.06381,0.07 -0.120757,0.13317 -0.175557,0.18997 -0.05198,0.0577 -0.102213,0.10762 -0.149318,0.15233 -0.04527,0.0448 -0.08776,0.0832 -0.125284,0.11783 -0.03621,0.0336 -0.07608,0.0629 -0.111704,0.0873 -0.03169,0.0244 -0.06658,0.0442 -0.09681,0.0596 -0.03169,0.0146 -0.06147,0.027 -0.08776,0.0353 -0.02716,0.009 -0.05695,0.009 -0.08557,0.009 -0.02716,-10e-4 -0.05695,-10e-4 -0.08557,-10e-4 -0.158823,-0.0244 -0.291831,-0.11097 -0.294547,-0.19632 0.0011,-0.0453 0.03169,-0.19257 -0.02263,-0.21497 -0.05972,-0.0213 -0.201344,0.13346 -0.294095,0.14149 -0.229847,0.019 -0.327124,-0.0866 -0.332556,-0.24296 7.15e-4,-0.0353 -0.04074,-0.0723 -0.02263,-0.093 0.04527,-0.0461 0.0733,-0.1933 0.04746,-0.21284 -0.02263,-0.0213 -0.135359,0.038 -0.170578,0.027 -0.03621,-0.009 -0.101775,0.0517 -0.152034,0.0499 -0.158795,-0.001 -0.315808,-0.12104 -0.261519,-0.1525 0.03621,-0.0244 0.137549,-0.17006 0.125868,-0.18601 -0.02263,-0.0158 -0.182785,0.052 -0.213113,0.0431 -0.03169,-0.009 -0.07827,-10e-4 -0.123532,-10e-4 -0.04527,-0.001 -0.08557,0.0321 -0.142075,0.0362 -0.06147,0.007 -0.109076,-0.0146 -0.139301,-0.0439 -0.03169,-0.0312 -0.04979,-0.0759 -0.06147,-0.12456 -0.02263,-0.0485 -0.02263,-0.10046 -0.02263,-0.14845 0.0014,-0.0473 0.08557,-0.169 0.08557,-0.19611 0,-0.12367 -0.359701,0.23946 -0.6452,0.31402 -0.297716,0.0781 -0.374183,-0.29673 -0.378708,-0.43915 0,-0.13332 -0.134818,0.18548 -0.460919,0.21305 -0.330748,0.0272 -0.271024,-0.36766 -0.275548,-0.50468 0,-0.16779 -0.206322,0.1928 -0.427123,0.39184 -0.16606,0.14968 -0.274188,0.98882 -0.488248,0.16672 -0.03167,-0.001 -0.06425,-0.0146 -0.09458,-0.0146 -0.03167,-3.3e-4 -0.02263,-0.30325 -0.0475,-0.30129 -0.02715,-8.8e-4 -0.09231,0.30766 -0.118538,0.31332 -0.02263,0.009 -0.09954,-0.23967 -0.123531,-0.23003 -0.02263,0.009 0,0.27515 -0.02263,0.28943 -0.02263,0.0146 -0.0362,0.0308 -0.05701,0.0499 -0.02263,0.0213 -0.106783,-0.24324 -0.120801,-0.21872 -0.02263,0.0244 0.04072,0.33559 0.02715,0.36554 -0.149318,0.32134 -0.294551,0.38654 -0.392284,0.17587 -0.0362,-0.074 -0.09682,0.12046 -0.139812,0.43246 -0.113558,0.83343 -0.208584,0.9478 -0.891345,1.08589 -1.013462,0.20483 -3.087128,0.78012 -4.089008,1.13427 -0.824696,0.29155 -2.819906,1.22621 -3.778577,1.77003 -0.173299,0.0977 -0.542543,0.23401 -0.82162,0.30229 -1.004458,0.24595 -1.842005,0.66096 -1.9615,0.97188 -0.06153,0.1618 -0.07827,0.3788 -0.0362,0.48206 0.03167,0.0746 0.28686,0.2476 0.253376,0.27231 -0.03167,0.0244 -0.357441,-0.099 -0.476347,-0.10951 -0.368755,-0.0302 -0.645252,0.26604 -0.523857,0.56255 0.306315,0.74854 4.915379,2.26938 7.059492,2.32936 1.341631,0.0321 4.276779,0.0846 4.450342,0.07 0.113573,-0.007 0.168309,0.23424 0.190034,0.84454 0.02715,0.70985 0.08551,0.93321 0.361514,1.3023 0.09231,0.12339 0.187318,0.22366 0.285955,0.30121 0.09954,0.077 0.201344,0.13156 0.30722,0.1632 0.106783,0.0308 0.215824,0.0399 0.329842,0.0244 0.113558,-0.0146 0.232564,-0.0517 0.354276,-0.112 0.06651,-0.0315 0.130307,-10e-4 0.180531,-0.019 0.04978,-0.0146 0.08551,-0.0723 0.128043,-0.0691 0.04524,0.001 0.102257,0.10148 0.152024,0.12587 0.0475,0.0244 0.08551,-0.0244 0.152022,0.0213 0.04524,0.0348 0.05701,0.1532 0.09501,0.17845 0.0362,0.0244 0.109032,-0.0448 0.139812,-0.0293 0.06425,0.0326 0.158805,0.11929 0.206322,0.11272 0.0475,-0.009 0.04978,-0.10571 0.09501,-0.15161 0.06153,-0.0632 0.166061,-0.0603 0.208132,-0.11856 z"
       style="color:#000000;fill:#008000;fill-opacity:1;fill-rule:nonzero;stroke:#ff0000;stroke-width:0.06350169000000000;stroke-linecap:butt;stroke-linejoin:miter;stroke-miterlimit:4;stroke-opacity:1;stroke-dasharray:none;stroke-dashoffset:0;marker:none;visibility:visible;display:inline;overflow:visible;enable-background:accumulate"
       inkscape:transform-center-y="6.7003737"
       inkscape:transform-center-x="0.1950733" />
    <path
       inkscape:connector-curvature="0"
       id="path7426"
       style="color:#000000;fill:#ff0000;fill-opacity:1;fill-rule:nonzero;stroke:none;marker:none;visibility:visible;display:inline;overflow:visible;enable-background:accumulate"
       d="m 43.738067,-15.913825 c 0,0 -1.216593,2.175378 -3.098931,1.681855 0,0 -0.433005,0.489277 2.409357,2.249219 2.848281,1.761522 8.730792,4.0168131 16.592197,-0.512177 0,0 13.384595,5.1968642 18.728376,9.0190674 5.332842,3.81690121 12.542786,11.4497972 14.9703,11.8014722 2.427639,0.351672 3.10175,-0.708007 3.538784,-2.539413 0.438088,-1.834182 -4.76647,-8.6211223 -4.76647,-8.6211223 0,0 2.900772,-5.2742333 0.164539,-11.8060063 -2.737039,-6.53013 -8.146977,-15.758132 -17.342195,-22.659357 -9.194505,-6.903455 -39.871656,-16.028985 -42.1707,-17.220913 -2.298518,-1.1936 -5.861039,-4.712181 -8.034154,-7.535611 -2.169584,-2.816799 -4.039682,-7.415043 -12.092799,-10.921881 -8.0467964,-3.506124 -0.503903,4.38041 -0.225891,5.055668 0.271441,0.675196 4.021027,8.531797 -3.1650574,11.998507 -7.1809089,3.469592 -20.4508536,5.157427 -33.9378916,11.34339 -13.493638,6.18649 -23.011364,14.384221 -25.21686,17.486375 -2.206241,3.103733 -8.940355,2.058433 -12.360306,2.182101 -3.416666,0.128285 -13.567726,-0.789815 -13.801551,1.349742 -0.232088,2.142903 6.106173,-0.113413 8.960403,1.090353 2.8542,1.203486 8.316038,2.609747 9.956155,5.095237 1.641448,2.482826 3.221576,8.3024974 4.361414,8.783191 1.148268,0.4841961 1.245659,-0.8185086 0.765801,-3.933738 -0.479175,-3.114733 -0.344539,-8.211366 3.504049,-8.828772 3.848278,-0.618305 12.078544,-3.645377 14.707689,-4.552385 2.624124,-0.910259 18.290846,-3.491684 20.785292,-3.55877 2.500737,-0.06693 11.645386,1.100641 15.6450943,2.787207 3.9945025,1.684147 17.8766177,4.400457 22.7628517,5.566448 4.89274,1.166024 18.156985,3.920136 18.360659,5.200313" />
    <path
       style="color:#000000;fill:none;stroke:#ff0000;stroke-width:5;stroke-linecap:butt;stroke-linejoin:miter;stroke-miterlimit:4;stroke-opacity:1;stroke-dasharray:none;stroke-dashoffset:0;marker:none;visibility:visible;display:inline;overflow:visible;enable-background:accumulate"
       d="m -88.787309,-76.272636 c 0,0 163.863468,-9.196087 246.449059,-12.477156 44.332,-1.761305 132.88556,9.8957 132.88556,9.8957"
       id="path4366"
       inkscape:connector-curvature="0"
       sodipodi:nodetypes="csc" />
    <rect
       style="color:#000000;fill:none;stroke:#000000;stroke-width:3.22459102;stroke-linecap:butt;stroke-linejoin:miter;stroke-miterlimit:4;stroke-opacity:1;stroke-dasharray:none;stroke-dashoffset:0;marker:none;visibility:visible;display:inline;overflow:visible;enable-background:accumulate"
       id="rect45983-9"
       width="381.12128"
       height="325.60425"
       x="-89.788284"
       y="-140.98465" />
    <text
       sodipodi:linespacing="125%"
       id="text5039-3"
       y="-110.24101"
       x="300.45898"
       style="font-size:51.37639618px;font-style:normal;font-weight:normal;line-height:125%;letter-spacing:0px;word-spacing:0px;fill:#000000;fill-opacity:1;stroke:none;font-family:Sans"
       xml:space="preserve"
       transform="scale(1.0004358,0.99956439)"><tspan
         style="font-size:34px;font-style:normal;font-variant:normal;font-weight:normal;font-stretch:normal;font-family:Arial;-inkscape-font-specification:Arial Bold"
         id="tspan5041-6"
         y="-110.24101"
         x="300.45898"
         sodipodi:role="line">(b) Magnitude mismatch</tspan></text>
    <path
       style="color:#000000;fill:none;stroke:#ff0000;stroke-width:5;stroke-linecap:butt;stroke-linejoin:miter;stroke-miterlimit:4;stroke-opacity:1;stroke-dasharray:none;stroke-dashoffset:0;marker:none;visibility:visible;display:inline;overflow:visible;enable-background:accumulate"
       d="m 295.98721,127.77029 c 21.00505,-0.006 42.00832,-2.52384 62.41928,-7.48415 18.34045,-4.45713 36.3026,-10.93165 52.5236,-20.58139 26.1172,-15.536907 46.93652,-38.867343 63.18052,-64.550721 15.69111,-24.809206 27.38163,-51.884551 39.58295,-78.58353 5.31743,-11.635635 10.78903,-23.300202 18.2691,-33.678628 1.5775,-2.188741 3.26781,-4.34213 5.41974,-5.969476 2.15194,-1.627347 4.83418,-2.697113 7.52084,-2.450212 1.57845,0.145058 3.10058,0.73934 4.41964,1.618338 1.31905,0.878999 2.43995,2.036659 3.36307,3.325217 1.84625,2.577115 2.89227,5.629838 3.83959,8.65519 2.55373,8.155591 4.57069,16.467431 6.6468,24.757484 5.54708,22.149837 11.52971,44.1918863 16.74663,66.421801 5.73289,24.428514 10.62477,49.333327 21.31392,72.034876 5.4846,11.648151 12.7897,22.940061 23.59754,29.936551 8.78785,5.68884 19.28941,8.14117 29.68726,9.35518 6.56518,0.76652 13.18328,1.07936 19.79149,0.93554 l 0,0.93551"
       id="path4024-6"
       inkscape:path-effect="#path-effect4026-9"
       inkscape:original-d="m 295.98721,127.77029 c 20.80642,-2.49471 41.91486,-2.47757 62.41928,-7.48415 18.02386,-4.40088 36.75706,-8.98071 52.5236,-20.58139 23.49785,-17.289186 48.7651,-35.932139 63.18052,-64.550721 13.1944,-26.1945164 26.68496,-52.167088 39.58295,-78.58353 6.49379,-13.29991 8.96619,-23.197035 18.2691,-33.678628 3.51415,-3.959302 8.26748,-9.578336 12.94058,-8.419688 3.34621,0.829665 9.84591,10.016145 11.6223,13.598745 5.22319,10.534672 3.3837,13.091153 6.6468,24.757484 6.13133,21.920143 10.73125,44.4532923 16.74663,66.421801 6.63088,24.215432 10.28592,50.376049 21.31392,72.034876 5.99695,11.777621 13.8217,22.959321 23.59754,29.936551 8.83435,6.30518 19.57821,7.5445 29.68726,9.35518 6.53304,1.17016 19.79149,0.93554 19.79149,0.93554 l 0,0.93551"
       inkscape:connector-curvature="0"
       sodipodi:nodetypes="ssssssssssssscs" />
    <path
       style="color:#000000;fill:none;stroke:#0000ff;stroke-width:5;stroke-linecap:butt;stroke-linejoin:miter;stroke-miterlimit:4;stroke-opacity:1;stroke-dasharray:none;stroke-dashoffset:0;marker:none;visibility:visible;display:inline;overflow:visible;enable-background:accumulate"
       d="m 296.18688,180.72294 c 21.00199,-0.006 42.00216,-2.50458 62.41937,-7.4261 18.32924,-4.41822 36.28877,-10.83473 52.52361,-20.42179 26.06335,-15.39103 46.90808,-38.52771 63.18049,-64.050058 15.68382,-24.599178 27.37979,-51.475221 39.58286,-77.974028 5.3193,-11.55079258 10.79274,-23.130638 18.26922,-33.417428 1.58223,-2.176966 3.27753,-4.31754 5.43026,-5.93259 2.15272,-1.61505 4.83075,-2.673137 7.5102,-2.421778 1.56948,0.147233 3.08252,0.738385 4.3954,1.610896 1.31288,0.87251 2.43046,2.020476 3.35364,3.298237 1.84636,2.555523 2.90601,5.583481 3.8733,8.584164 2.60338,8.0761143 4.71603,16.3026572 6.64672,24.565443 6.01967,25.762373 10.28436,51.920846 16.74676,77.575741 5.18001,20.563971 11.80023,40.854481 21.31386,59.807061 5.74156,11.43806 12.87177,22.72221 23.59763,29.70438 8.76913,5.7084 19.29104,8.09736 29.68713,9.28261 6.56681,0.74867 13.18355,1.05902 19.79161,0.92829 l 0,0.92826"
       id="path5465-5"
       inkscape:path-effect="#path-effect4028-6"
       inkscape:original-d="m 296.18688,180.72294 c 20.80643,-2.47537 41.91478,-2.45836 62.41937,-7.4261 18.02386,-4.36676 36.75689,-8.91105 52.52361,-20.42179 23.49776,-17.15508 48.76509,-35.65343 63.18049,-64.050058 13.1943,-25.99136 26.68491,-51.762495 39.58286,-77.974028 6.49387,-13.196771 8.96613,-23.017112 18.26922,-33.417428 3.51405,-3.928593 8.26738,-9.50403 12.94046,-8.354368 3.34633,0.823219 9.84585,9.93843 11.62234,13.493297 5.22324,10.4529303 3.3836,12.9895805 6.64672,24.565443 6.13125,21.750132 10.73113,55.777644 16.74676,77.575741 6.6309,24.027621 10.28576,38.316231 21.31386,59.807061 5.99676,11.68626 13.82169,22.78125 23.59763,29.70438 8.83417,6.25625 19.57802,7.48598 29.68713,9.28261 6.53305,1.1611 19.79161,0.92829 19.79161,0.92829 l 0,0.92826"
       inkscape:connector-curvature="0"
       sodipodi:nodetypes="ssssssssssssscs" />
    <path
       sodipodi:nodetypes="csssssssssssssssssccccccccssssscsscssssssssssssscssssscsssssssssssscccccccccccssssssssscsscssscssssssssccsscscsssssssscsscscscscsscssssssssscsssccc"
       inkscape:connector-curvature="0"
       id="path8915-79-0-3"
       d="m 412.7582,28.839497 c 0.0542,-0.205707 -0.26501,-0.71154 -0.22124,-0.978095 0.0385,-0.266198 0.41557,-0.503018 0.44119,-0.792415 0.0243,-0.288001 -0.29793,-0.624097 -0.28546,-0.90065 0.005,-0.27677 0.003,-0.535645 -0.011,-0.763404 -0.12149,-1.961958 -1.97281,-3.375682 -5.94875,-4.544111 -1.38667,-0.407103 -2.46378,-0.994619 -2.39275,-1.304481 0.0703,-0.3123 3.03658,-2.050632 6.58941,-3.867216 3.55305,-1.81717 8.4652,-4.704722 10.91615,-6.4172945 6.3565,-4.4426538 7.30582,-4.7879385 9.8859,-3.5917686 0.44136,0.202565 0.85074,0.3795216 1.24233,0.5235987 0.3927,0.1457332 0.76469,0.2573732 1.13113,0.3402295 0.36506,0.083412 0.72554,0.1326045 1.08774,0.1449455 0.36332,0.0172 0.73105,-0.0017 1.11389,-0.05674 0.383,-0.05467 0.78913,-0.1266855 1.22276,-0.2387453 0.44111,-0.085985 1.38573,0.2448555 1.88353,0.05626 0.49141,-0.2090603 0.54197,-0.9189484 1.1159,-1.211128 0.57317,-0.2935239 2.79867,1.2046576 2.66834,0.2008739 l -0.21341,-1.6450654 1.50848,0.6661374 -0.29973,-1.4317283 1.36505,0.4129137 -0.15796,-1.1775429 1.53827,0.3509792 -0.31578,-1.1209431 1.12232,-0.202557 -0.41515,-1.58986691 c -0.15473,-0.6123791 0.61619,-0.97964779 0.39659,-1.63978419 -0.21018,-0.663154 -1.23033,-1.6014245 -1.64213,-2.2171132 -0.41093,-0.6159899 -0.9005,-1.1826431 -1.43186,-1.6483585 -0.53248,-0.4653426 -1.10422,-0.8296894 -1.68322,-1.0403431 -1.40193,-0.5097239 -1.47003,-0.6263378 -0.75332,-1.2835973 1.07476,-0.9851021 4.62972,-2.0604746 7.80343,-2.3619576 2.27058,-0.21377 2.93704,0.0301 4.96295,1.823726 1.28715,1.1396906 2.70102,2.2030867 3.14144,2.3638229 0.4405,0.1613182 2.31998,1.064199 4.17673,2.0083612 1.94826,0.9901124 3.98787,1.5885669 4.82416,1.4136662 1.20174,-0.2480862 2.13462,-0.675386 2.83401,-1.3198036 0.69316,-0.6628225 1.14154,-1.5769449 1.36041,-2.8389812 0.21864,-1.2624812 0.20844,-2.8719274 -0.0147,-4.9236365 -0.22292,-2.050632 -2.37581,-4.450597 -3.00811,-7.478987 -0.50121,-2.395755 -0.53815,-4.851199 -0.95227,-6.95549 -0.41311,-2.104068 0.51168,-3.949311 0.38413,-4.745068 -0.47797,-2.977216 -1.4144,-4.82717 -4.34143,-8.585738 -2.24787,-2.88608 -3.31567,-3.604447 -5.37012,-3.613292 -2.55785,-0.01158 -3.46055,1.14849 -5.90243,7.484163 -3.12286,8.1286 -3.30038,8.400312 -5.70147,8.737644 -1.09286,0.152218 -3.91426,0.902178 -6.27105,1.663511 -3.94009,1.300344 -8.65796,1.900177 -8.93947,1.183125 -0.053,-0.16739 0.41855,-1.104129 1.07414,-2.086001 1.44969,-2.17232 2.07308,-6.014224 1.29718,-7.99233 -0.15485,-0.363962 -0.39308,-0.718437 -0.7148,-1.02534 -0.31814,-0.312232 -0.35037,-1.263799 -0.75157,-1.472627 -0.40465,-0.208279 -1.17977,0.319696 -1.57283,0.273371 -0.39582,-0.05893 -0.6127,-0.668812 -0.91425,-0.532637 -0.0909,0.02875 -0.40446,0.715009 -0.61959,0.751468 -0.22181,0.0166 -0.25384,-0.925499 -0.57498,-0.890605 -0.30586,0.03026 -0.86186,1.047164 -1.22148,1.066169 -0.35869,0.0223 -0.64078,-0.710354 -1.01686,-0.704501 -0.27875,0.0066 -0.63963,0.758773 -0.89357,0.777172 -0.25692,0.01478 -0.30174,-0.782389 -0.54171,-0.749814 -0.24249,0.02314 -0.67514,0.899416 -0.91465,0.952327 -0.23062,0.07297 -0.27194,-1.076777 -0.52099,-1.000486 -0.24852,0.07863 -0.71725,1.360154 -0.98916,1.464025 -0.27635,0.08744 -0.81995,-1.482689 -1.12683,-1.347903 -0.30307,0.14947 -0.37063,1.990235 -0.72374,2.159627 -0.35318,0.167966 -1.23495,-2.188032 -1.3108,-1.625901 l -0.33496,2.443637 -1.04912,-1.693928 0.044,2.201474 -0.87213,-1.574147 -0.13368,2.081929 -0.8983,-1.295767 -0.107,1.802952 -0.55538,-0.427115 -0.36396,1.672338 -0.58868,0.557788 -0.24543,1.425903 -0.41691,0.991486 c -0.16937,0.4001 -0.32489,0.764698 -0.47185,1.094047 -0.14487,0.331152 -0.28375,0.624976 -0.41401,0.890142 -0.12785,0.264705 -0.25341,0.497978 -0.37068,0.707841 -0.11934,0.20565 -0.23064,0.388936 -0.34284,0.546612 -0.1116,0.158305 -0.21854,0.2934 -0.32973,0.404701 -0.11062,0.111674 -0.21923,0.206875 -0.33066,0.288795 -0.107,0.08743 -0.22895,0.138952 -0.34849,0.186937 -0.12212,0.03863 -0.24856,0.07864 -0.37659,0.119149 -0.72658,0.143185 -1.43674,-0.03454 -1.58071,-0.401255 -0.0631,-0.19897 -0.15345,-0.885905 -0.43392,-0.897055 -0.28462,-0.01183 -0.66616,0.886452 -1.05905,1.063775 -0.96985,0.434602 -1.553,0.124531 -1.81581,-0.545479 -0.0484,-0.152589 -0.29089,-0.249734 -0.2394,-0.367762 0.11559,-0.266159 0.0183,-0.949995 -0.11942,-0.996641 -0.13803,-0.04752 -0.52846,0.371413 -0.70255,0.375751 -0.17643,0.0022 -0.37205,0.382696 -0.57426,0.446677 -0.69708,0.220555 -1.55683,-0.04047 -1.36999,-0.268086 0.13268,-0.164183 0.34001,-0.951429 0.25415,-0.997665 -0.0836,-0.04507 -0.71078,0.505206 -0.85928,0.511493 -0.15145,-0.0058 -0.33918,0.107314 -0.53933,0.170642 -0.19921,0.06303 -0.32184,0.269706 -0.56914,0.378949 -0.26093,0.136139 -0.49013,0.101365 -0.67228,0.02447 -0.18435,-0.08418 -0.33335,-0.251185 -0.45649,-0.445083 -0.12337,-0.194618 -0.21681,-0.415664 -0.28985,-0.623196 -0.0659,-0.208085 0.11562,-0.86511 0.07,-0.981553 -0.20751,-0.530527 -1.19457,1.590622 -2.31869,2.350787 -1.17365,0.794513 -2.07876,-0.715898 -2.31809,-1.326491 -0.22463,-0.570376 -0.29593,1.009246 -1.67375,1.630653 -1.39291,0.624888 -1.73885,-1.181753 -1.96927,-1.769262 -0.28227,-0.719304 -0.60241,1.154317 -1.25439,2.355066 -0.49112,0.904407 0.32567,4.712572 -1.86369,1.469598 -0.1472,0.04657 -0.30216,0.04189 -0.43656,0.08441 -0.13271,0.04199 -0.55338,-1.285243 -0.67199,-1.233937 -0.11896,0.03764 0.0697,1.47748 -0.0302,1.54026 -0.0931,0.08303 -0.80254,-0.887016 -0.88533,-0.810371 -0.0824,0.08124 0.45937,1.180947 0.40291,1.271195 -0.0668,0.09266 -0.12385,0.192046 -0.16946,0.303248 -0.0493,0.112737 -0.8335,-0.893451 -0.86458,-0.763354 -0.031,0.13255 0.68855,1.395319 0.67485,1.546404 -0.15612,1.623904 -0.68749,2.129352 -1.43409,1.364353 -0.26203,-0.269094 -0.23853,0.671534 0.0547,2.092146 0.78261,3.792905 0.55066,4.432993 -2.20466,6.07874 -4.08626,2.440828 -12.20638,8.1126145 -16.01178,11.18352927 -3.13297,2.52807983 -10.36147,9.63994133 -13.68964,13.46837673 -0.59942,0.688907 -1.99565,1.846165 -3.10315,2.570061 -3.98314,2.605888 -6.98188,5.688686 -7.02545,7.221881 -0.0239,0.798312 0.23988,1.76453 0.58108,2.148806 0.24588,0.278851 1.62571,0.635594 1.518,0.79354 -0.10849,0.156263 -1.70356,0.11587 -2.23633,0.25386 -1.64826,0.434669 -2.3926,2.143015 -1.41172,3.243982 2.47736,2.780929 24.8193,2.327248 34.21929,-0.69467 5.8733,-1.912008 18.69552,-6.18019 19.42688,-6.508747 0.47939,-0.21291 1.08835,0.758924 2.1152,3.377043 1.19572,3.0437 1.80631,3.918969 3.56686,5.100046 0.58859,0.395123 1.15607,0.684828 1.70372,0.869334 0.54735,0.183466 1.07524,0.263501 1.5844,0.238003 0.50779,-0.02854 0.99903,-0.157924 1.472,-0.39355 0.47271,-0.236268 0.92792,-0.578933 1.36629,-1.026929 0.23661,-0.237713 0.55398,-0.228856 0.75329,-0.350512 0.19651,-0.133702 0.25753,-0.443671 0.45436,-0.495772 0.19605,-0.06203 0.60141,0.283801 0.8494,0.315678 0.24803,0.02895 0.33765,-0.244635 0.68029,-0.143583 0.25737,0.07204 0.48,0.579842 0.6867,0.628056 0.20686,0.04672 0.39725,-0.360302 0.56131,-0.340471 0.32771,0.03881 0.87001,0.276518 1.06919,0.176534 0.19453,-0.115127 0.053,-0.536963 0.18359,-0.805059 0.17105,-0.370038 0.62711,-0.514336 0.72583,-0.835452 z"
       style="color:#000000;fill:#ff0000;fill-opacity:1;fill-rule:nonzero;stroke:none;stroke-width:1;marker:none;visibility:visible;display:inline;overflow:visible;enable-background:accumulate"
       inkscape:transform-center-y="19.558483"
       inkscape:transform-center-x="-0.012610401" />
    <path
       style="color:#000000;fill:#0000ff;fill-opacity:1;fill-rule:nonzero;stroke:none;stroke-width:0.06350169000000000;stroke-linecap:butt;stroke-linejoin:miter;stroke-miterlimit:4;stroke-opacity:1;stroke-dasharray:none;stroke-dashoffset:0;marker:none;visibility:visible;display:inline;overflow:visible;enable-background:accumulate"
       d="m 333.3177,41.178541 c -0.94711,-0.812979 -1.85362,-1.720413 -2.9602,-2.311154 -1.11714,-0.372594 -2.38234,-0.261433 -3.40134,-0.943346 -1.21244,-0.727038 -2.19556,-1.875293 -2.72726,-3.180896 0.19905,-0.652918 0.0774,-0.96222 -0.69248,-0.877126 -1.02382,-0.08822 -1.93647,-0.656149 -2.99335,-0.619766 -0.46599,-0.07017 -1.58844,-0.252694 -1.32754,0.537085 -0.0716,1.123097 0.32674,2.221162 0.47773,3.299504 -0.41813,-1.193373 -0.64974,-2.501727 -0.57972,-3.782242 -0.85975,0.184921 -0.58611,1.162791 -0.64663,1.816473 -0.13473,0.429429 0.26534,1.454408 0.10204,1.570029 -0.47817,-0.884376 0.0928,-2.57779 -0.38923,-2.994259 -0.64351,-0.06692 -0.5514,1.802258 -0.61157,0.693105 -0.0203,-0.98612 -0.3289,0.717443 -0.13537,0.975273 0.0384,0.785921 0.39581,1.889048 0.37529,2.474672 -0.33488,-1.194085 -0.55686,-2.451129 -0.51739,-3.693381 -0.51292,0.377436 -0.8762,1.885903 -1.05706,2.801372 -0.32427,0.892909 0.16225,-1.465489 0.38626,-1.90725 0.0819,-0.45793 0.93458,-1.451903 0.0656,-0.727476 -0.66787,0.647033 -1.40357,1.366587 -1.65677,2.27986 0.008,-0.992161 0.97602,-1.771131 1.64153,-2.442189 0.50435,-0.296111 1.78091,-1.292261 1.31088,-1.625998 -0.88276,-0.02047 -1.43705,0.827413 -2.10195,1.303689 -0.54294,0.345284 -0.63953,1.041142 -1.04361,1.504324 0.21635,-1.065808 1.13247,-1.781174 1.95744,-2.427409 0.41313,-0.329552 1.1922,-0.747382 0.17796,-0.442566 -1.17105,0.263887 -2.14073,1.077793 -3.1929,1.554028 0.87346,-0.638072 1.87738,-1.250278 2.92382,-1.607367 0.50348,-0.04317 1.42194,-0.448577 0.35522,-0.367487 -1.17034,0.07004 -2.26818,0.523519 -3.41788,0.690478 0.46849,-0.247341 1.79778,-0.544926 2.62058,-0.718554 1.44687,-0.246003 2.9352,-0.08926 4.34016,0.294806 1.0919,-0.02285 2.09808,0.527813 3.17017,0.638447 -0.52618,-0.274767 -0.41356,-1.099798 -0.94617,-1.295489 -1.28729,-0.385629 -0.428,-1.866037 -1.12253,-2.573384 -0.4519,-0.695458 0.90242,0.536919 1.23332,-0.07133 1.15271,-0.09211 1.84298,0.956926 2.79346,1.407152 0.63966,0.722556 0.002,-0.943236 -0.0168,-1.262601 -0.29964,-0.949399 -1.01062,-1.926365 -0.804,-2.935082 0.10615,-1.135249 0.0693,-2.296756 0.20776,-3.424396 0.30754,-0.935055 0.44028,-1.952397 0.87776,-2.858531 0.15051,-0.38376 0.6519,-1.440195 0.83581,-1.304931 -0.76755,1.211029 -1.36028,2.592121 -1.45953,4.034243 0.38978,-0.694408 1.21394,-2.362459 1.54499,-2.377333 -0.42633,0.626844 -1.16884,1.69872 -1.23905,2.190532 0.45308,-0.471349 1.77897,-1.88309 1.94509,-1.658555 -0.73437,0.558829 -1.40325,1.220079 -1.99098,1.927259 -0.042,0.684974 -0.026,0.731266 0.5435,0.246049 0.16714,0.220201 -0.7956,0.439032 -0.49843,0.904293 0.10413,0.79141 0.54826,-1.191345 1.07736,-1.33814 0.63498,-0.882338 1.75173,-1.124506 2.73947,-1.323662 -0.89729,0.453508 -2.08044,0.496345 -2.68159,1.445172 -0.91385,0.952402 0.99037,-0.119343 1.37489,-0.215351 0.64879,-0.315996 1.88848,-0.318551 2.28852,-0.05971 -1.18401,-0.178226 -2.34494,0.06368 -3.38712,0.660869 -1.03586,0.497311 1.09855,-0.02279 1.51318,0.268945 0.52252,0.206075 1.81655,0.230469 1.90048,0.427099 -1.28577,-0.01434 -2.54021,-0.668779 -3.83345,-0.294971 -0.0519,0.387433 -0.8757,1.084788 -0.10705,0.844915 0.79288,-0.09723 1.85899,0.283025 2.3846,0.57319 -0.87771,-0.171252 -1.74209,-0.628859 -2.65977,-0.430741 -0.0394,0.246134 -0.64944,0.786248 -0.25699,0.808486 0.89499,0.156889 1.88875,0.350352 2.61012,0.878043 -0.90803,-0.275168 -2.0254,-0.951929 -2.92136,-0.639523 -0.48351,1.111117 0.31208,2.15154 0.84135,3.065433 0.15138,0.620144 0.34469,1.229634 0.49607,1.850187 1.04583,0.01931 1.98956,0.596225 2.93873,0.981291 1.32304,0.68324 2.21222,2.012998 2.52018,3.448129 0.49274,1.814684 2.40195,2.650609 3.36523,4.150584 -0.95368,-0.539128 -1.7232,-1.389239 -2.67004,-1.940372 0.32782,0.636345 -0.71135,0.144171 -0.34944,0.78264 0.0732,0.709224 -1.03569,0.245998 -0.58767,0.956502 -1.24905,0.147438 0.53102,1.272415 0.78731,1.774774 0.36726,0.350588 1.58406,1.805491 0.25863,0.613474 z m -7.76346,-18.301372 c -0.74392,-0.245836 -0.0893,1.378482 -0.009,0.129015 z"
       id="path2987-4-7"
       inkscape:connector-curvature="0"
       sodipodi:nodetypes="ccccccccccccccccccccccccccccccccccccccccccccccccccccccccccccccccccccccccccccc" />
    <rect
       style="color:#000000;fill:none;stroke:#000000;stroke-width:3.22459102;stroke-linecap:butt;stroke-linejoin:miter;stroke-miterlimit:4;stroke-opacity:1;stroke-dasharray:none;stroke-dashoffset:0;marker:none;visibility:visible;display:inline;overflow:visible;enable-background:accumulate"
       id="rect45983-9-6"
       width="381.12128"
       height="325.60425"
       x="295.16833"
       y="-140.72974" />
    <path
       style="color:#000000;fill:none;stroke:#ff0000;stroke-width:5;stroke-linecap:butt;stroke-linejoin:miter;stroke-miterlimit:4;stroke-opacity:1;stroke-dasharray:none;stroke-dashoffset:0;marker:none;visibility:visible;display:inline;overflow:visible;enable-background:accumulate"
       d="m 680.97875,178.20889 c 21.10889,0.007 42.21623,-3.11487 62.41914,-9.2327 18.69779,-5.66205 36.69865,-13.9342 52.52368,-25.38996 27.71167,-20.0605 47.75146,-49.098405 63.18061,-79.632023 15.75055,-31.169667 27.19954,-64.28945072 39.58293,-96.943389 5.36925,-14.158267 10.94411,-28.294607 18.26909,-41.547159 1.41578,-2.561465 2.92525,-5.125452 5.04994,-7.138224 1.06234,-1.006386 2.27451,-1.86545 3.61569,-2.450786 1.34118,-0.585336 2.81458,-0.89146 4.27493,-0.797795 1.83698,0.117822 3.60574,0.868679 5.06431,1.991602 1.45857,1.122924 2.61726,2.605583 3.49475,4.223727 1.75499,3.236289 2.38927,6.941275 3.06315,10.560586 1.90726,10.243631 4.33039,20.382772 6.64691,30.541677 6.19831,27.182148 11.63883,54.532245 16.74661,81.94025 5.58783,29.98393 10.82688,60.224174 21.31382,88.864774 5.09287,13.90901 11.83641,27.92675 23.59759,36.93078 8.5198,6.52254 19.0825,9.90647 29.6872,11.54089 6.541,1.00812 13.1776,1.39512 19.7915,1.1541 l 0,1.15407"
       id="path5330-0"
       inkscape:path-effect="#path-effect5402-4"
       inkscape:original-d="m 680.97875,178.20889 c 20.80639,-3.07758 41.91481,-3.05646 62.41914,-9.2327 18.02406,-5.4291 36.75708,-11.07894 52.52368,-25.38996 23.49791,-21.32852 48.76524,-44.327136 63.18061,-79.632023 13.19419,-32.314475 26.68495,-64.35517707 39.58293,-96.943389 6.4938,-16.407269 8.96626,-28.61667 18.26909,-41.547159 3.51393,-4.884343 8.26754,-11.816151 12.94056,-10.386805 3.34633,1.023547 9.846,12.356247 11.62221,16.775915 5.22336,12.995871 3.38379,16.149679 6.64691,30.541677 6.13137,27.041471 10.73113,54.839158 16.74661,81.94025 6.63074,29.873018 10.286,62.145644 21.31382,88.864774 5.99691,14.52925 13.82179,28.32341 23.59759,36.93078 8.8343,7.77826 19.5783,9.30714 29.6872,11.54089 6.5331,1.44354 19.7915,1.1541 19.7915,1.1541 l 0,1.15407"
       inkscape:connector-curvature="0"
       sodipodi:nodetypes="ssssssssssssscs" />
    <path
       sodipodi:nodetypes="cssssssssssscs"
       inkscape:connector-curvature="0"
       inkscape:original-d="m 679.80266,168.97619 c 18.02396,-5.4291 45.16445,-11.07894 60.93105,-25.38996 23.49801,-21.32852 48.76534,-44.327136 63.18061,-79.632023 13.19428,-32.314475 26.68481,-64.35517707 39.58302,-96.943389 6.49381,-16.407269 8.96604,-28.61667 18.269,-41.547159 3.51405,-4.884343 8.26742,-11.816151 12.94068,-10.386805 3.3463,1.023547 9.84576,12.356247 11.62218,16.775915 5.22327,12.995871 3.3837,16.149679 6.64682,30.541677 6.13124,27.041471 10.73101,54.839158 16.74673,81.94025 6.63074,29.873018 10.28576,62.145644 21.3138,88.864774 5.99691,14.52925 13.82163,28.32341 23.59757,36.93078 8.83413,7.77826 19.57818,9.30714 29.68725,11.54089 6.53308,1.44354 19.79143,1.1541 19.79143,1.1541 l 0,1.15407"
       inkscape:path-effect="#path-effect5353-0"
       id="path5351-1"
       d="m 679.80266,168.97619 c 21.88483,-3.69342 42.8992,-12.4501 60.93105,-25.38996 27.80059,-19.95002 47.78132,-49.074897 63.18061,-79.632023 15.7164,-31.186382 27.19418,-64.29201149 39.58302,-96.943389 5.37167,-14.157303 10.94439,-28.294455 18.269,-41.547159 1.41573,-2.561526 2.92522,-5.125544 5.04994,-7.138315 1.06236,-1.006385 2.27455,-1.865441 3.61576,-2.45076 1.3412,-0.585319 2.81462,-0.89142 4.27498,-0.79773 1.83697,0.117852 3.60572,0.868724 5.06428,1.991651 1.45856,1.122928 2.61724,2.605583 3.49473,4.223721 1.75498,3.236276 2.38928,6.941245 3.06317,10.560543 1.90728,10.24362 4.33034,20.38277 6.64682,30.541677 6.19821,27.182178 11.63889,54.532249 16.74673,81.94025 5.5879,29.983916 10.82689,60.224164 21.3138,88.864774 5.09286,13.90901 11.83639,27.92675 23.59757,36.93078 8.51985,6.52255 19.08253,9.90647 29.68725,11.54089 6.541,1.00811 13.17759,1.39511 19.79143,1.1541 l 0,1.15407"
       style="color:#000000;fill:none;stroke:#0000ff;stroke-width:5;stroke-linecap:butt;stroke-linejoin:miter;stroke-miterlimit:4;stroke-opacity:1;stroke-dasharray:none;stroke-dashoffset:0;marker:none;visibility:visible;display:inline;overflow:visible;enable-background:accumulate" />
    <text
       xml:space="preserve"
       style="font-size:51.37639618px;font-style:normal;font-weight:normal;line-height:125%;letter-spacing:0px;word-spacing:0px;fill:#000000;fill-opacity:1;stroke:none;font-family:Sans"
       x="686.57703"
       y="-110.80931"
       id="text3040-1"
       sodipodi:linespacing="125%"
       transform="scale(1.0004358,0.99956439)"><tspan
         sodipodi:role="line"
         x="686.57703"
         y="-110.80931"
         id="tspan3042-4"
         style="font-size:34px;font-style:normal;font-variant:normal;font-weight:normal;font-stretch:normal;text-indent:0;text-align:start;text-decoration:none;line-height:125%;letter-spacing:0px;word-spacing:0px;text-transform:none;direction:ltr;block-progression:tb;writing-mode:lr-tb;text-anchor:start;baseline-shift:baseline;color:#000000;fill:#000000;fill-opacity:1;fill-rule:nonzero;stroke:none;marker:none;visibility:visible;display:inline;overflow:visible;enable-background:accumulate;font-family:Arial;-inkscape-font-specification:Arial Bold">(c) Optimum mismatch</tspan></text>
    <path
       style="color:#000000;fill:#ff0000;fill-opacity:1;fill-rule:nonzero;stroke:none;stroke-width:1;marker:none;visibility:visible;display:inline;overflow:visible;enable-background:accumulate"
       d="m 709.36091,76.477052 c 2.57919,-6.320251 5.71931,-12.593869 6.86783,-19.355353 0,-6.437816 -2.77457,-12.804107 -1.00075,-19.269721 1.67241,-7.546704 5.93045,-14.635193 11.7886,-19.656301 3.73592,-0.100611 5.13141,-1.267991 3.35396,-5.111459 -1.31767,-5.4607476 0.049,-11.1772805 -1.9735,-16.5933216 -0.44389,-2.5375477 -1.44295,-8.6731574 -5.09195,-5.9506513 -5.95679,1.5770281 -10.96836,5.5466183 -16.3066,8.1999318 5.47219,-4.2377785 11.86517,-7.7078655 18.63671,-9.5660649 -2.45167,-4.13636 -7.05537,-1.021563 -10.5552,-0.201412 -2.46384,0.04648 -7.09276,3.8984447 -7.97647,3.2524062 3.76344,-4.0129702 13.54802,-3.9904742 14.8748,-7.2116782 -0.76859,-3.452177 -10.31612,0.267724 -4.66024,-1.968232 5.08587,-1.815903 -4.29638,-0.460708 -5.29963,0.989833 -4.01504,1.562496 -9.12392,5.32872 -12.20081,6.2381433 5.62039,-3.8072193 11.76347,-7.1385803 18.28316,-9.0887793 -2.84984,-2.004395 -11.31378,-1.271222 -16.38168,-0.620815 -5.1996,-0.132313 7.89205,-1.70085 10.57484,-1.305865 2.52037,-0.369422 9.16128,2.326653 3.8918,-0.921942 -4.51882,-2.340071 -9.53182,-4.906002 -14.71382,-4.634561 5.16675,-1.678756 10.89108,1.987786 15.53039,4.27394 2.4126,2.101103 9.80028,6.991179 10.71816,3.975633 -1.42509,-4.611941 -6.78973,-6.014856 -10.41649,-8.635696 -2.73505,-2.215846 -6.51637,-1.509601 -9.62264,-2.800995 5.91031,-0.72713 11.21458,2.781381 16.0015,5.937327 2.42814,1.570149 5.94948,4.88425 2.60705,0.154932 -3.40169,-5.613301 -9.31036,-9.22856 -13.60875,-13.857202 4.82872,3.421439 9.74947,7.56415 13.41912,12.369694 1.09741,2.535317 4.7958,6.593777 2.52453,1.204168 -2.39371,-5.945911 -6.65318,-10.850735 -9.51432,-16.521516 2.09711,1.999777 5.94818,8.374942 8.27721,12.339389 3.78739,7.074254 5.5548,15.062021 5.99726,23.011829 2.0127,5.62107824 0.89824,11.7925394 2.1833,17.542454 0.51423,-3.2045027 4.99423,-4.0517136 5.08663,-7.1523211 -0.23023,-7.3425154 8.94851,-5.45565411 11.41723,-10.2831986 2.82779,-3.5491336 -1.22304,5.60970681 2.50979,6.270091 2.47787,5.8162034 -1.7729,11.2143467 -2.46238,16.9228237 -2.64281,4.569486 4.9025,-1.623986 6.5279,-2.277401 4.41022,-3.20097 8.25116,-8.5807816 13.84819,-9.2592522 6.07974,-1.4189012 12.04795,-3.6245862 18.14425,-4.8628391 5.38951,-0.02789 10.9031,-1.10404938 16.36763,-0.4078135 2.25415,0.1146528 8.61038,0.8815045 8.22686,2.0695587 -7.6208,-1.8785581 -15.82125,-2.5558303 -23.4828,-0.5688821 4.28235,0.8162658 14.37462,2.1955072 15.02614,3.8859824 -3.9949,-1.122883 -10.84942,-3.1130197 -13.52527,-2.623947 3.23366,1.5313413 12.86517,5.9562718 11.98729,7.2069438 -4.17599,-2.8377676 -8.77027,-5.1584255 -13.46231,-6.9787259 -3.6302,0.9705725 -3.84298,1.1335085 -0.33515,3.244456 -0.85359,1.24845 -3.6601,-3.3630878 -5.56074,-1.015471 -3.92957,1.9126339 7.13787,0.7758371 8.81801,3.2642379 5.68373,1.7614 8.87838,7.130893 11.62608,11.906108 -3.91155,-3.865172 -6.18643,-9.924549 -12.15663,-11.395286 -6.53137,-3.0856438 2.33763,4.927336 3.50315,6.754277 2.76639,2.815374 4.93017,9.23776 4.27971,11.760649 -1.12813,-6.447344 -4.39804,-12.046282 -9.30727,-16.4133 -4.37948,-4.5075899 2.02388,5.655579 1.22781,8.311177 -0.16361,3.066357 1.95435,9.817232 1.07861,10.593441 -2.15568,-6.690656 -0.93285,-14.329194 -5.11746,-20.385269 -2.10221,0.402851 -7.15264,-2.658221 -4.57367,0.910577 1.8803,3.941854 1.75467,10.128423 1.15958,13.356658 -0.63306,-4.847348 0.24417,-10.122295 -2.37654,-14.536117 -1.34665,0.222639 -5.20999,-2.0028101 -4.64454,0.0703 0.73761,4.912035 1.45665,10.399485 -0.0322,15.054568 -0.14595,-5.184708 1.43056,-12.151373 -1.74597,-16.2543416 -6.60902,-0.5793307 -10.63237,5.3499186 -14.46035,9.6790146 -2.95808,1.860362 -5.78804,3.919828 -8.74815,5.781012 1.71371,5.455363 0.35483,11.348562 9.9e-4,16.937228 -1.25331,8.044148 -6.61686,14.960443 -13.53569,19.046323 -8.56953,5.702174 -9.59896,17.049964 -15.71803,24.64571 1.14567,-5.879215 4.22579,-11.34324 5.44564,-17.207902 -2.73627,2.803332 -1.9827,-3.437736 -4.67072,-0.454004 -3.55627,1.609489 -3.07394,-4.942574 -5.98666,-1.387493 -2.93238,-6.219673 -5.68706,4.960034 -7.85147,7.160058 -1.18362,2.512066 -6.62872,11.343931 -2.73719,2.404945 z M 790.93909,4.4841355 c -0.0155,-4.28306815 -7.31374,1.928338 -0.68642,0.1747646 z"
       id="path2987-4-3"
       inkscape:connector-curvature="0"
       sodipodi:nodetypes="ccccccccccccccccccccccccccccccccccccccccccccccccccccccccccccccccccccccccccccc" />
    <path
       style="color:#000000;fill:#0000ff;fill-opacity:1;fill-rule:nonzero;stroke:none;stroke-width:0.06350169000000000;stroke-linecap:butt;stroke-linejoin:miter;stroke-miterlimit:4;stroke-opacity:1;stroke-dasharray:none;stroke-dashoffset:0;marker:none;visibility:visible;display:inline;overflow:visible;enable-background:accumulate"
       d="m 760.75685,-5.2573937 -0.20234,-0.2602868 c -0.36765,-0.47555 -0.62784,-0.9724808 -0.90038,-1.7205264 -0.3656,-1.0055121 -0.46735,-1.6957368 -0.38989,-2.6557622 0.10095,-1.2712529 0.48379,-2.1553289 1.34249,-3.1135249 0.60644,-0.677024 1.55285,-1.467367 2.27398,-1.900063 l 0.28135,-0.170426 0.0995,-0.07065 0.34227,-0.177863 c 0.18934,-0.09606 0.62373,-0.294683 0.96818,-0.43753 l 0.62565,-0.261837 0.11334,-0.03098 0.18283,-0.04617 c 0.75157,-0.202342 1.21262,-0.269892 1.77453,-0.258737 0.19584,0.0031 0.38154,0.0063 0.41042,0.0093 l 0.18715,0.01859 0.12457,0.02169 c 0.65075,0.109996 1.26013,0.268963 1.6756,0.43756 0,0 0.3683,0.125185 0.49296,0.200483 0.64914,0.386216 0.23581,0.140369 0.50146,0.313056 0.46328,0.297781 0.93932,0.67089 1.11873,0.878035 0.0836,0.09575 0.24418,0.334499 0.35744,0.529899 0.24603,0.423866 0.3692,0.532846 0.75486,0.670239 0.24293,0.08645 0.30925,0.09296 0.43266,0.04183 0.57927,-0.240454 1.74076,-1.093451 2.19714,-1.61384 0.47966,-0.546725 0.76861,-1.511894 0.66177,-2.210671 -0.15307,-1.003714 -1.34234,-2.757551 -2.42748,-3.579934 -0.65596,-0.497395 -1.85752,-1.127755 -2.97582,-1.561411 -0.51869,-0.201102 -0.64112,-0.301498 -0.48113,-0.395295 0.12302,-0.0753 2.32777,0.933717 3.05884,1.398577 1.09763,0.69763 1.98124,1.709774 2.67899,3.067727 0.38281,0.745505 0.47732,1.360247 0.31672,2.068692 -0.10721,0.477161 -0.36438,1.020138 -0.62187,1.31705 -0.4996,0.575698 -1.55806,1.372579 -2.1501,1.618364 -0.0995,0.0406 -0.17661,0.07933 -0.17197,0.08924 0,0.0093 0.0551,0.06322 0.1137,0.124566 0.15927,0.162679 0.22062,0.355539 0.18498,0.584343 -0.0217,0.109383 -0.0217,0.193666 10e-4,0.18685 0.0523,-0.02169 1.08055,0.116506 1.44238,0.193046 0.6831,0.144706 1.75734,0.500122 2.37493,0.785756 0.80648,0.37317 1.14511,0.708197 1.59354,1.5738975 0.31672,0.6128517 0.38015,0.8377212 0.3399,1.2036717 -0.031,0.2723718 -0.21535,0.7354963 -0.46703,1.1674796 l -0.18282,0.3127776 -0.0964,0.1595802 c -0.0217,0.00626 -0.0725,0.078088 -0.12952,0.165778 -0.40569,0.6214655 -0.81991,1.0749223 -1.71567,1.8771323 -1.24847,1.1179318 -1.60445,1.605071 -2.28786,3.1303518 -0.15771,0.3491551 -0.30893,0.64482917 -0.33865,0.65713067 -0.10251,0.042762 -0.14997,-0.077161 -0.0933,-0.23363837 0.14998,-0.3974021 0.63514,-1.398732 0.87591,-1.8082491 0.43411,-0.7382853 0.66623,-0.9915069 2.06726,-2.2520383 0.64442,-0.5794786 1.18927,-1.2544588 1.654,-2.0478999 0.48723,-0.83081 0.59014,-1.2947407 0.39669,-1.7805467 -0.12457,-0.3140169 -0.50734,-0.994884 -0.66085,-1.177116 -0.33153,-0.394923 -0.89564,-0.716005 -1.84968,-1.054379 -1.04805,-0.371558 -1.8517,-0.556764 -2.71953,-0.626794 l -0.29779,-0.02479 -0.0868,0.244484 c -0.12952,0.368646 -0.13727,0.588558 -0.0551,1.098874 0.10408,0.6261139 0.0523,1.3934333 -0.15307,2.3043126 l -0.14036,0.5207289 -0.10564,0.2404557 c -0.14378,0.3275276 -0.44104,0.8674053 -0.62026,1.1255541 -0.44199,0.6372682 -0.85129,0.9997488 -1.77457,1.5726279 l -0.11033,0.069412 c -0.0551,0.02789 -0.11346,0.052989 -0.16795,0.081806 -0.031,0.024786 -0.33642,0.1809611 -0.679,0.3489072 -0.63353,0.3045983 -1.52572,0.6392837 -2.00444,0.7486039 -0.12952,0.02789 -0.24416,0.060112 -0.25935,0.066308 l -0.14657,0.030982 -0.22682,0.040596 c -0.38265,0.066308 -1.22542,0.1316926 -1.67278,0.1298336 -0.23332,-8.374e-4 -0.45618,8.675e-4 -0.4956,0.00313 l -0.20636,-0.012393 -0.36072,-0.02789 c -1.23016,-0.099781 -2.12861,-0.5086138 -3.08768,-1.4047118 -0.20451,-0.1905675 -0.37918,-0.3431452 -0.38929,-0.3394886 z"
       id="path4059-5-8"
       inkscape:connector-curvature="0"
       sodipodi:nodetypes="csssssccssccssccssccsssssssssssssssssssssssccsssssssssssscssccsssccscccssccsscc" />
    <rect
       style="color:#000000;fill:none;stroke:#000000;stroke-width:3.22459102;stroke-linecap:butt;stroke-linejoin:miter;stroke-miterlimit:4;stroke-opacity:1;stroke-dasharray:none;stroke-dashoffset:0;marker:none;visibility:visible;display:inline;overflow:visible;enable-background:accumulate"
       id="rect45983-9-6-0"
       width="381.12128"
       height="325.60425"
       x="680.12476"
       y="-140.82076" />
    <flowRoot
       xml:space="preserve"
       id="flowRoot3218"
       style="font-size:20px;font-style:normal;font-variant:normal;font-weight:normal;font-stretch:normal;text-align:start;line-height:100%;letter-spacing:0px;word-spacing:0px;writing-mode:lr-tb;text-anchor:start;fill:#000000;fill-opacity:1;stroke:none;font-family:TeXGyreAdventor;-inkscape-font-specification:TeXGyreAdventor"><flowRegion
         id="flowRegion3220"><rect
           id="rect3222"
           width="1185.5994"
           height="461.29837"
           x="16.698584"
           y="363.54562" /></flowRegion><flowPara
         id="flowPara3224" /></flowRoot>  </g>
</svg>
